<svg id="logo" xmlns="http://www.w3.org/2000/svg" viewBox="0 0 211.3 237.3"><style>.st0{fill:#fff}</style><path class="st0" d="M131.1 67.3h-24.3l-35.1 91.1h22l5.7-15.5h33.2l-6-17.1h-21.8L119 86.7l25.2 71.7h22z"/><path class="st0" d="M206.3 186c-1.7 0-3.2.8-4.1 2.1 0 0-4.4 5-6.7 7.4-10 10-21.6 17.8-34.5 23.3-13.4 5.7-27.6 8.5-42.3 8.5-14.7 0-28.9-2.9-42.3-8.5-12.9-5.5-24.6-13.3-34.5-23.3-10-10-17.8-21.6-23.3-34.5-5.7-13.4-8.5-27.6-8.5-42.3s2.9-28.9 8.5-42.3c5.4-13 13.3-24.6 23.2-34.6S63.4 24 76.4 18.6C89.8 12.9 104 10 118.7 10c14.7 0 28.9 2.9 42.3 8.5 9.4 4 18.1 9.2 26 15.6-.4 1.2-.7 2.6-.7 4 0 6.8 5.5 12.3 12.3 12.3 6.8 0 12.3-5.5 12.3-12.3 0-6.8-5.5-12.3-12.3-12.3-1.7 0-3.3.3-4.7 1C173.4 10.1 147.2 0 118.7 0 53.1 0 0 53.1 0 118.7s53.1 118.7 118.7 118.7c36.7 0 69.4-16.6 91.2-42.8.9-.9 1.5-2.2 1.5-3.5-.1-2.9-2.3-5.1-5.1-5.1z"/></svg>