<svg xmlns="http://www.w3.org/2000/svg" viewBox="0 0 2500 977"><g><path d="M325.45,927.73,179.1,875.21V660.71l146.35,49.86V927.73m26.85,0,146.35-52.51V660.71L352.29,710.58V927.73M194.14,644.67,342.26,603,479.6,647.26,342.26,693.89,194.14,644.67m-42.93-16.61L4.86,575.56V361L151.21,410.9V628.06m26.85,0,146.36-52.5V361L178.06,410.9V628.06M19.9,345,168,303.29l137.34,44.29L168,394.21,19.9,345m472.8,283.07-146.36-52.5V361L492.71,410.9V628.06m26.85,0,146.36-52.5V361L519.55,410.9V628.06M361.41,345l148.12-41.69,137.33,44.29L509.52,394.21,361.41,345m305.54-16.63L520.59,275.88V61.36l146.36,49.85V328.36m26.85,0,146.35-52.48V61.36L693.78,111.21V328.36m-158.14-283L683.76,3.61,821.09,47.89,683.76,94.53,535.63,45.31m472.81,283L862.09,275.88V61.36l146.36,49.85V328.36m26.84,0,146.36-52.48V61.36l-146.36,49.85V328.36m-158.15-283,148.12-41.7,137.33,44.28L1025.25,94.52,877.13,45.3" style="fill:#f90"/><path d="M934,788,884.83,958.78H863.48L825.2,831.92,790.11,958.78H768.33L717.21,788h26.42l37.22,127.28L816.27,788h19.49l38.52,127.69L912.53,788H934Z"/><path d="M934,788,884.83,958.78H863.48L825.2,831.92,790.11,958.78H768.33L717.21,788h26.42l37.22,127.28L816.27,788h19.49l38.52,127.69L912.53,788H934Z" style="fill:#fff"/><path d="M885.21,959.28H863.1l-.11-.36-37.78-125.2L790.49,959.28H768l-.11-.36L716.54,787.49H744l.11.36,36.73,125.59,35.06-126h20.24l.11.36,38,126.09,37.88-126.45h22.49l-.17.64Zm-21.36-1h20.61l48.87-169.79H912.9L874.28,917.41,835.39,788.49H816.65l-35.8,128.6-37.6-128.6H717.88L768.7,958.28h21l35.45-128.16Z" style="fill:#fff"/><path d="M1070,907.83l24.75,5.08q-6.75,21.9-26.32,36.26t-46.09,14.36q-34.94,0-56.54-24.63t-21.61-64.58q0-40.8,22.45-65.93T1023,783.25q33.44,0,53.77,23.14t20.85,69.26h-124q0,38.75,16.19,52.28t34.24,13.53q32.56,0,45.89-33.62Zm-1.45-52a74.14,74.14,0,0,0-4.73-25.53,43.61,43.61,0,0,0-14.84-19q-10.46-7.85-25.15-7.85a44.84,44.84,0,0,0-33.49,14.2q-13.75,14.21-15.43,38.18h93.63Z"/><path d="M1070,907.83l24.75,5.08q-6.75,21.9-26.32,36.26t-46.09,14.36q-34.94,0-56.54-24.63t-21.61-64.58q0-40.8,22.45-65.93T1023,783.25q33.44,0,53.77,23.14t20.85,69.26h-124q0,38.75,16.19,52.28t34.24,13.53q32.56,0,45.89-33.62Zm-1.45-52a74.14,74.14,0,0,0-4.73-25.53,43.61,43.61,0,0,0-14.84-19q-10.46-7.85-25.15-7.85a44.84,44.84,0,0,0-33.49,14.2q-13.75,14.21-15.43,38.18h93.63Z" style="fill:#fff"/><path d="M1022.32,964c-23.34,0-42.49-8.34-56.92-24.8S943.67,901,943.67,874.32c0-27.19,7.6-49.48,22.58-66.26s34.09-25.3,56.76-25.3c22.33,0,40.54,7.84,54.15,23.31s20.63,38.86,21,69.58v.51h-124c.07,25.28,5.46,42.56,16,51.39S1012.25,941,1024.1,941c21.39,0,36.67-11.21,45.42-33.31l.15-.39,25.7,5.27-.16.53c-4.52,14.65-13.43,26.93-26.5,36.52S1040,964,1022.32,964Zm.68-180.27c-22.38,0-41.22,8.4-56,25s-22.32,38.66-22.32,65.59c0,26.41,7.23,48,21.49,64.25S999.29,963,1022.32,963c17.47,0,32.88-4.8,45.8-14.26,12.73-9.34,21.47-21.27,26-35.48l-23.79-4.88c-8.95,22.26-24.49,33.55-46.2,33.55-12.09,0-23.72-4.59-34.56-13.64s-16.37-26.8-16.37-52.66v-.5h123.95c-.41-30.22-7.38-53.24-20.72-68.43S1045,783.75,1023,783.75Zm45.54,72.6H974.38l0-.54c1.13-16,6.36-29,15.57-38.5A45.52,45.52,0,0,1,1023.83,803h0c9.86,0,18.42,2.68,25.45,8a44.31,44.31,0,0,1,15,19.23,74.6,74.6,0,0,1,4.75,25.2h0v.5h-.5Zm-93.09-1H1068a73.57,73.57,0,0,0-4.68-24.83,43.32,43.32,0,0,0-14.68-18.8c-6.85-5.14-15.21-7.75-24.85-7.75a44.55,44.55,0,0,0-33.13,14C981.77,827.24,976.64,839.8,975.45,855.35Z" style="fill:#fff"/><path d="M1145.37,958.78h-12.79V728.18h26.61v88.28q18.22-33.22,50.25-33.21,29.33,0,49.15,23.19t19.82,67.36q0,38.09-19.49,63.9t-50.73,25.82q-34.78,0-53.33-33Zm13.82-67q1.86,26.31,16.13,38.18t30.15,11.88q20.27,0,32.69-17.61t12.4-48.22q0-33-12-51.86t-33.27-18.88q-16.71,0-30.15,13.43t-16,34.73v38.35Z"/><path d="M1145.37,958.78h-12.79V728.18h26.61v88.28q18.22-33.22,50.25-33.21,29.33,0,49.15,23.19t19.82,67.36q0,38.09-19.49,63.9t-50.73,25.82q-34.78,0-53.33-33Zm13.82-67q1.86,26.31,16.13,38.18t30.15,11.88q20.27,0,32.69-17.61t12.4-48.22q0-33-12-51.86t-33.27-18.88q-16.71,0-30.15,13.43t-16,34.73v38.35Z" style="fill:#fff"/><path d="M1208.19,964c-22.92,0-40.82-10.86-53.21-32.29l-9.25,27.54h-13.65V727.68h27.61v86.87c12.11-21.1,28.84-31.8,49.75-31.8,19.62,0,36.29,7.86,49.53,23.37s19.94,38.26,19.94,67.69c0,25.37-6.59,47-19.59,64.2S1229.08,964,1208.19,964Zm-53.45-34.73.55,1c12.22,21.73,30,32.75,52.89,32.75,20.55,0,37.49-8.62,50.33-25.62s19.39-38.45,19.39-63.59c0-29.19-6.63-51.74-19.7-67s-29.46-23-48.77-23c-21.06,0-37.82,11.09-49.82,33l-.94-.24V728.68h-25.61v229.6H1145Zm50.72,13.08c-10.65,0-20.9-4-30.47-12s-15.07-21-16.31-38.53V853.47c1.7-14.29,7.12-26.08,16.11-35.08s19.29-13.57,30.5-13.57c14.29,0,25.63,6.43,33.69,19.11S1251.06,854,1251.06,876c0,20.45-4.2,36.77-12.49,48.51S1219.1,942.38,1205.47,942.38Zm-45.78-50.58c1.23,17.29,6.59,30,16,37.82s19.42,11.76,29.83,11.76c13.28,0,24.14-5.85,32.28-17.4s12.31-27.7,12.31-47.93c0-21.81-4-39.17-11.9-51.59s-18.92-18.65-32.85-18.65c-10.94,0-21,4.47-29.79,13.28s-14.16,20.43-15.82,34.43Z" style="fill:#fff"/><path d="M1346.22,914.52l25.36-5.24q8.47,32.18,53.46,32.18,16.55,0,28.07-7.42t11.5-20.91q0-20.07-29.28-25.46l-36-6.85q-21.14-4.06-33.63-15.9t-12.5-31.29q0-21.46,17.06-35.93t45.95-14.45q55.58,0,68.58,43.44l-24.34,5.23q-10.47-26.6-43-26.61-16.22,0-26.6,6.65t-10.38,18.59q0,18.82,26.53,23.71l33.25,6.12q52.22,9.46,52.21,50.63,0,23.53-19.43,38t-51.74,14.49q-60.69,0-75.06-49Z"/><path d="M1346.22,914.52l25.36-5.24q8.47,32.18,53.46,32.18,16.55,0,28.07-7.42t11.5-20.91q0-20.07-29.28-25.46l-36-6.85q-21.14-4.06-33.63-15.9t-12.5-31.29q0-21.46,17.06-35.93t45.95-14.45q55.58,0,68.58,43.44l-24.34,5.23q-10.47-26.6-43-26.61-16.22,0-26.6,6.65t-10.38,18.59q0,18.82,26.53,23.71l33.25,6.12q52.22,9.46,52.21,50.63,0,23.53-19.43,38t-51.74,14.49q-60.69,0-75.06-49Z" style="fill:#fff"/><path d="M1421.28,964c-40.53,0-65.94-16.61-75.54-49.36l-.15-.52,26.36-5.45.12.46c5.55,21.1,23.38,31.8,53,31.8,10.91,0,20.26-2.47,27.79-7.34s11.28-11.71,11.28-20.49c0-13-9.71-21.44-28.87-25l-36-6.85c-14.11-2.71-25.5-8.1-33.88-16s-12.66-18.6-12.66-31.65c0-14.4,5.8-26.62,17.24-36.31s27-14.57,46.27-14.57c37.13,0,60.37,14.73,69.06,43.79l.15.52-25.28,5.44-.16-.39c-6.87-17.45-21.2-26.29-42.58-26.29-10.65,0-19.51,2.21-26.33,6.57S1381,822.82,1381,830.56c0,12.21,8.79,20,26.12,23.22l33.25,6.12c34.91,6.33,52.62,23.53,52.62,51.13,0,15.8-6.61,28.72-19.64,38.41S1442.83,964,1421.28,964Zm-74.42-49.12c9.57,31.93,34.61,48.12,74.42,48.12,21.33,0,38.64-4.84,51.44-14.39S1492,926.49,1492,911c0-27-17.43-43.92-51.8-50.14l-33.25-6.12c-17.88-3.3-26.94-11.44-26.94-24.2,0-8.1,3.57-14.5,10.61-19s16-6.73,26.87-6.73c21.68,0,36.26,8.93,43.35,26.53l23.39-5c-8.67-28.24-31.53-42.56-67.95-42.56-19.06,0-34.41,4.82-45.62,14.33s-16.88,21.45-16.88,35.55c0,12.76,4.15,23.17,12.34,30.93s19.47,13.1,33.38,15.77l36,6.85c19.7,3.63,29.68,12.36,29.68,26,0,9.14-3.95,16.32-11.73,21.33S1436.15,942,1425,942c-29.9,0-48-10.8-53.82-32.09Z" style="fill:#fff"/><path d="M1634,907.83l24.75,5.08q-6.74,21.9-26.33,36.26t-46.07,14.36q-35,0-56.55-24.63t-21.6-64.58q0-40.8,22.46-65.93T1587,783.25q33.41,0,53.77,23.14t20.84,69.26h-124q0,38.75,16.19,52.28t34.25,13.53Q1620.63,941.46,1634,907.83Zm-1.45-52a74.14,74.14,0,0,0-4.72-25.53,43.61,43.61,0,0,0-14.84-19q-10.46-7.85-25.15-7.85a44.87,44.87,0,0,0-33.5,14.2q-13.74,14.21-15.43,38.18h93.63Z"/><path d="M1634,907.83l24.75,5.08q-6.74,21.9-26.33,36.26t-46.07,14.36q-35,0-56.55-24.63t-21.6-64.58q0-40.8,22.46-65.93T1587,783.25q33.41,0,53.77,23.14t20.84,69.26h-124q0,38.75,16.19,52.28t34.25,13.53Q1620.63,941.46,1634,907.83Zm-1.45-52a74.14,74.14,0,0,0-4.72-25.53,43.61,43.61,0,0,0-14.84-19q-10.46-7.85-25.15-7.85a44.87,44.87,0,0,0-33.5,14.2q-13.74,14.21-15.43,38.18h93.63Z" style="fill:#fff"/><path d="M1586.3,964c-23.35,0-42.51-8.34-56.93-24.8s-21.73-38.25-21.73-64.91c0-27.21,7.6-49.5,22.59-66.26s34.08-25.3,56.75-25.3c22.33,0,40.54,7.84,54.15,23.31s20.63,38.86,21,69.58v.51h-124c.07,25.27,5.46,42.56,16,51.39S1576.23,941,1588.08,941c21.38,0,36.66-11.21,45.41-33.31l.15-.39,25.7,5.27-.16.53c-4.51,14.65-13.43,26.94-26.51,36.52S1604,964,1586.3,964Zm.68-180.27c-22.37,0-41.21,8.4-56,25s-22.33,38.64-22.33,65.59c0,26.41,7.23,48,21.48,64.25S1563.25,963,1586.3,963c17.48,0,32.88-4.8,45.78-14.26s21.49-21.27,26-35.48l-23.79-4.88c-8.95,22.26-24.48,33.55-46.19,33.55-12.09,0-23.72-4.59-34.57-13.64s-16.37-26.81-16.37-52.66v-.5h123.95c-.4-30.23-7.37-53.25-20.71-68.43S1609,783.75,1587,783.75Zm45.53,72.6h-94.17l0-.54c1.11-16,6.35-29,15.57-38.5A45.56,45.56,0,0,1,1587.8,803c9.86,0,18.42,2.68,25.45,8a44.3,44.3,0,0,1,15,19.23,74.57,74.57,0,0,1,4.74,25.2h0v.5h-.5Zm-93.09-1H1632a73.58,73.58,0,0,0-4.67-24.83,43.32,43.32,0,0,0-14.68-18.8c-6.85-5.14-15.21-7.75-24.85-7.75a44.6,44.6,0,0,0-33.14,14C1545.72,827.26,1540.59,839.82,1539.42,855.35Z" style="fill:#fff"/><path d="M1716.82,958.78h-26.61V788h23.32V827.8q12.32-28,24.74-36.25t25.43-8.3c2.7,0,6.19.21,10.47.62v25.37h-5.39q-21.94,0-36.43,16.3t-15.53,42.82v90.42Z"/><path d="M1716.82,958.78h-26.61V788h23.32V827.8q12.32-28,24.74-36.25t25.43-8.3c2.7,0,6.19.21,10.47.62v25.37h-5.39q-21.94,0-36.43,16.3t-15.53,42.82v90.42Z" style="fill:#fff"/><path d="M1717.32,959.28h-27.61V787.49H1714v38c7.9-17.44,16-29,24-34.32,8.31-5.56,17-8.38,25.71-8.38,2.71,0,6.24.21,10.52.62l.45,0v26.33h-5.89a46.41,46.41,0,0,0-36.05,16.13c-9.54,10.71-14.73,25-15.4,42.51Zm-26.61-1h25.61V868.36c.69-17.76,6-32.27,15.65-43.16s22.1-16.47,36.8-16.47h4.89V784.32c-4-.38-7.39-.57-10-.57-8.54,0-17,2.76-25.15,8.22s-16.43,17.57-24.56,36l-1-.2V788.49h-22.32Z" style="fill:#fff"/><path d="M1939.41,788l-59,170.79h-27.57L1791.94,788h29.43l47.4,138.82,47-138.82h23.59Z"/><path d="M1939.41,788l-59,170.79h-27.57L1791.94,788h29.43l47.4,138.82,47-138.82h23.59Z" style="fill:#fff"/><path d="M1880.81,959.28h-28.28l-.12-.33-61.18-171.46h30.5l.12.34,46.93,137.43,46.68-137.77h24.65l-.23.66Zm-27.57-1h26.86l58.62-169.79h-22.53l-47.4,139.87L1821,788.49h-28.37Z" style="fill:#fff"/><path d="M1960.68,728.18h28.47v29.49h-28.47Zm1.24,59.8h26.6V958.78h-26.6Z"/><path d="M1960.68,728.18h28.47v29.49h-28.47Zm1.24,59.8h26.6V958.78h-26.6Z" style="fill:#fff"/><path d="M1989,959.28h-27.6V787.49H1989Zm-26.6-1H1988V788.49h-25.6Zm27.23-200.1h-29.47V727.68h29.47Zm-28.47-1h27.47V728.68h-27.47Z" style="fill:#fff"/><path d="M2127.54,899l23.92,4.22q-5.07,28.32-22.47,44.33t-43.42,16q-35.3,0-53.81-26.07t-18.51-63.64q0-38.94,19.52-64.75t53.13-25.81q27.89,0,44.69,16.69t20.87,43.1l-23.93,4.56q-6.75-42.26-40.85-42.29-21.94,0-33.75,18.66t-11.82,48.4q0,32.78,11.72,50.93t33,18.15q32.9,0,41.7-42.48Z"/><path d="M2127.54,899l23.92,4.22q-5.07,28.32-22.47,44.33t-43.42,16q-35.3,0-53.81-26.07t-18.51-63.64q0-38.94,19.52-64.75t53.13-25.81q27.89,0,44.69,16.69t20.87,43.1l-23.93,4.56q-6.75-42.26-40.85-42.29-21.94,0-33.75,18.66t-11.82,48.4q0,32.78,11.72,50.93t33,18.15q32.9,0,41.7-42.48Z" style="fill:#fff"/><path d="M2085.57,964c-23.61,0-41.85-8.84-54.22-26.29s-18.6-38.91-18.6-63.93c0-25.93,6.6-47.81,19.62-65s31-26,53.52-26c18.65,0,33.8,5.66,45,16.83s18.3,25.71,21,43.37l.07.48-24.91,4.75-.08-.51c-4.44-27.78-18-41.86-40.36-41.86-14.38,0-25.59,6.2-33.33,18.43s-11.74,28.5-11.74,48.13c0,21.64,3.92,38.69,11.64,50.66S2071.92,941,2085.84,941c21.55,0,35.42-14.14,41.2-42v-.54l.59.09,24.41,4.31-.09.49c-3.38,18.9-11,33.91-22.62,44.61S2103,964,2085.57,964Zm.33-180.27c-22.15,0-39.89,8.62-52.73,25.61s-19.42,38.74-19.42,64.44c0,24.81,6.2,46.13,18.41,63.35S2062.3,963,2085.57,963c17.13,0,31.62-5.34,43.08-15.88s18.84-25.11,22.23-43.55l-22.94-4C2122,927.68,2107.83,942,2085.84,942c-14.29,0-25.53-6.18-33.43-18.38s-11.8-29.36-11.8-51.2c0-19.82,4-36.2,11.89-48.67s19.43-18.89,34.17-18.89c22.77,0,36.65,14.2,41.26,42.2l22.95-4.37c-2.73-17.23-9.68-31.47-20.65-42.34S2104.27,783.75,2085.9,783.75Z" style="fill:#fff"/><path d="M2301.5,907.83l24.75,5.08q-6.74,21.9-26.33,36.26t-46.08,14.36q-35,0-56.55-24.63t-21.6-64.58q0-40.8,22.46-65.93t56.39-25.14q33.4,0,53.76,23.14t20.85,69.26h-124q0,38.75,16.19,52.28t34.26,13.53Q2288.16,941.46,2301.5,907.83Zm-1.45-52a74.37,74.37,0,0,0-4.73-25.53,43.61,43.61,0,0,0-14.84-19q-10.46-7.85-25.15-7.85a44.84,44.84,0,0,0-33.5,14.2q-13.74,14.21-15.43,38.18h93.64Z"/><path d="M2301.5,907.83l24.75,5.08q-6.74,21.9-26.33,36.26t-46.08,14.36q-35,0-56.55-24.63t-21.6-64.58q0-40.8,22.46-65.93t56.39-25.14q33.4,0,53.76,23.14t20.85,69.26h-124q0,38.75,16.19,52.28t34.26,13.53Q2288.16,941.46,2301.5,907.83Zm-1.45-52a74.37,74.37,0,0,0-4.73-25.53,43.61,43.61,0,0,0-14.84-19q-10.46-7.85-25.15-7.85a44.84,44.84,0,0,0-33.5,14.2q-13.74,14.21-15.43,38.18h93.64Z" style="fill:#fff"/><path d="M2253.84,964c-23.34,0-42.5-8.34-56.93-24.8s-21.73-38.26-21.73-64.91c0-27.2,7.6-49.49,22.59-66.26s34.09-25.3,56.76-25.3c22.33,0,40.54,7.84,54.14,23.31s20.63,38.84,21,69.58v.51h-124c.07,25.27,5.46,42.56,16,51.39S2243.78,941,2255.63,941c21.37,0,36.65-11.21,45.41-33.31l.15-.39,25.7,5.27-.16.53c-4.5,14.64-13.42,26.93-26.51,36.52S2271.54,964,2253.84,964Zm.69-180.27c-22.38,0-41.22,8.4-56,25s-22.33,38.65-22.33,65.59c0,26.4,7.23,48,21.48,64.25S2230.79,963,2253.84,963c17.48,0,32.89-4.8,45.79-14.26s21.49-21.28,26-35.48l-23.79-4.88c-9,22.26-24.49,33.55-46.19,33.55-12.09,0-23.72-4.59-34.58-13.64s-16.37-26.81-16.37-52.66v-.5h124c-.41-30.24-7.38-53.27-20.72-68.43S2276.56,783.75,2254.53,783.75Zm45.53,72.6h-94.18l0-.54c1.11-16,6.35-29,15.57-38.5A45.53,45.53,0,0,1,2255.34,803h0c9.86,0,18.42,2.68,25.45,8a44.3,44.3,0,0,1,15,19.23,74.85,74.85,0,0,1,4.75,25.2h0v.5h-.5Zm-93.1-1h92.59a73.79,73.79,0,0,0-4.68-24.83,43.32,43.32,0,0,0-14.68-18.8c-6.85-5.14-15.21-7.75-24.85-7.75a44.56,44.56,0,0,0-33.14,14C2213.26,827.26,2208.13,839.82,2207,855.35Z" style="fill:#fff"/><path d="M2344.16,914.52l25.39-5.24q8.44,32.18,53.43,32.18,16.58,0,28.08-7.42t11.5-20.91q0-20.07-29.28-25.46l-36-6.85q-21.14-4.06-33.63-15.9t-12.5-31.29q0-21.46,17.06-35.93t45.95-14.45q55.58,0,68.58,43.44l-24.34,5.23q-10.47-26.6-43-26.61-16.22,0-26.59,6.65t-10.39,18.59q0,18.82,26.54,23.71l33.24,6.12q52.21,9.46,52.22,50.63,0,23.53-19.44,38t-51.74,14.49q-60.69,0-75.07-49Z"/><path d="M2344.16,914.52l25.39-5.24q8.44,32.18,53.43,32.18,16.58,0,28.08-7.42t11.5-20.91q0-20.07-29.28-25.46l-36-6.85q-21.14-4.06-33.63-15.9t-12.5-31.29q0-21.46,17.06-35.93t45.95-14.45q55.58,0,68.58,43.44l-24.34,5.23q-10.47-26.6-43-26.61-16.22,0-26.59,6.65t-10.39,18.59q0,18.82,26.54,23.71l33.24,6.12q52.21,9.46,52.22,50.63,0,23.53-19.44,38t-51.74,14.49q-60.69,0-75.07-49Z" style="fill:#fff"/><path d="M2419.23,964c-40.52,0-65.94-16.61-75.55-49.36l-.15-.52,26.39-5.45.12.46c5.53,21.1,23.35,31.8,52.94,31.8,10.91,0,20.26-2.47,27.8-7.34s11.28-11.72,11.28-20.49c0-13-9.71-21.44-28.87-25l-36-6.85c-14.11-2.71-25.5-8.1-33.88-16s-12.66-18.6-12.66-31.65c0-14.41,5.8-26.63,17.24-36.31s27-14.57,46.27-14.57c37.12,0,60.36,14.73,69.06,43.79l.16.52-25.28,5.44-.16-.39c-6.87-17.45-21.2-26.29-42.58-26.29-10.65,0-19.51,2.21-26.32,6.57s-10.16,10.43-10.16,18.17c0,12.21,8.79,20,26.13,23.22l33.24,6.12c34.92,6.33,52.63,23.53,52.63,51.13,0,15.8-6.61,28.72-19.65,38.41S2440.78,964,2419.23,964Zm-74.43-49.12c9.58,31.93,34.62,48.12,74.43,48.12,21.33,0,38.64-4.84,51.44-14.39s19.24-22.14,19.24-37.61c0-27-17.43-43.91-51.81-50.14l-33.24-6.12c-17.88-3.3-27-11.44-27-24.2,0-8.11,3.57-14.51,10.62-19s16-6.73,26.86-6.73c21.68,0,36.26,8.93,43.35,26.53l23.39-5c-8.68-28.24-31.54-42.56-67.95-42.56-19.06,0-34.41,4.82-45.62,14.33s-16.88,21.44-16.88,35.55c0,12.76,4.15,23.17,12.34,30.93s19.47,13.1,33.38,15.77l36,6.85c19.7,3.63,29.68,12.36,29.68,26,0,9.13-3.95,16.31-11.73,21.33S2434.08,942,2423,942c-29.9,0-48-10.8-53.79-32.09Z" style="fill:#fff"/><path d="M1318.11,366.26c-32.9,0-63.7,16.92-77.28,53.17-15.67-36.25-37.6-53.17-72.59-53.17-34.45,0-60,16.92-73.61,53.17h-1.05V381.94a10.52,10.52,0,0,0-10.18-9.64h-52.09a10.55,10.55,0,0,0-10.79,10.33l0,287.11a10.53,10.53,0,0,0,10,9.44h55.95a10.55,10.55,0,0,0,10.78-10.34l0-152.18c0-33.22-1.57-79.14,38.64-79.14,39.68,0,34.45,47.13,34.45,79.14l.06,152.21a10.5,10.5,0,0,0,10,10.31h55.88a10.55,10.55,0,0,0,10.78-10.34V516.7c0-16.32-.53-40.48,5.22-55s19.84-23.56,33.42-23.56c16.19,0,28.71,5.44,32.89,24.78,2.62,11.47,1.58,41.68,1.58,53.76V668.9a10.51,10.51,0,0,0,10,10.31h55.87a10.56,10.56,0,0,0,10.79-10.34l0-181.17c0-30.81,3.65-65.86-14.1-90C1367.19,375.93,1341.6,366.26,1318.11,366.26Z" style="fill:#fff"/><path d="M955.74,574.76V487.61c0-36.93,2.62-70.84-24.59-96.27-21.46-20.59-57-27.85-84.25-27.85-53.24,0-112.64,19.87-125.1,85.65-1.32,7,3.77,10.65,8.35,11.69l54.21,5.86c5.08-.25,8.75-5.23,9.72-10.27,4.66-22.66,23.63-33.59,45-33.59,11.5,0,24.59,4.24,31.4,14.53,7.84,11.5,6.8,27.25,6.8,40.57v7.27c-32.43,3.63-74.82,6.05-105.18,19.38-35.07,15.14-59.66,46-59.66,91.43,0,58.13,36.63,87.19,83.73,87.19,39.77,0,61.51-9.37,92.22-40.66,10.16,14.7,13.49,21.84,32.07,37.29a11.6,11.6,0,0,0,13.22-1.31h0l.13.13c11.16-9.94,31.47-27.59,42.9-37.16,4.55-3.72,3.75-9.78.18-14.85C966.63,612.47,955.74,601,955.74,574.76Zm-89,26.68c-8.9,15.75-23,25.43-38.73,25.43-21.46,0-34-16.35-34-40.57,0-47.64,42.73-56.31,83.19-56.31V542.1h0C877.25,563.91,877.77,582.06,866.79,601.44Z" style="fill:#fff"/><path d="M2084.38,366.26h0c-80.28,0-124.84,69.46-124.84,158.89,0,88.81,44,160.1,124.84,160.1,77.71,0,126.91-69.48,126.91-157.08C2211.3,437.55,2166.75,366.26,2084.38,366.26Zm0,259.79c-43.52,0-43-67.53-43-102.57s2.59-91.22,43.52-91.22c17.62,0,30,7.85,36.27,27.79,7.26,22.95,8.28,52,8.28,76.12C2129.45,573,2127.38,626,2084.38,626Z" style="fill:#fff"/><path d="M2479.78,400.1c-15.66-24.78-40.21-33.84-65.27-33.84-38.64,0-60.57,18.73-76.23,58h-1.05V380.34a10.63,10.63,0,0,0-9.94-8h-51.89a10.6,10.6,0,0,0-10.75,9.37l.1,287.21a10.49,10.49,0,0,0,10,10.3h55.72a10.71,10.71,0,0,0,10.9-10.34V514.28c0-19.34,1.05-36.86,8.89-54.38,6.26-13.9,18.78-23,32.37-23,38.64,0,35,45.92,35,77.33V670.16a10.56,10.56,0,0,0,10,9.05h56.08a10.61,10.61,0,0,0,10.71-9.05V489.51C2494.39,461.72,2494.39,423,2479.78,400.1Z" style="fill:#fff"/><path d="M1945.1,601.42c-32.12-18.06-69.52-23.35-104.87-22.52l95.23-136c8.83-12.22,13.8-19.92,13.85-25.82v-35.2a10.25,10.25,0,0,0-10.62-10.35l-183.87,0h-.53a10.14,10.14,0,0,0-9.87,10.4v41h0c0,6.13,4.75,10.33,10.62,10.33h96.08l-110.35,158.3c-6.72,10.16-6.84,21.54-6.84,28.2v41.61c0,6,6.69,12.92,13.09,9.5,62.57-33.25,137.68-30,194.27-.36,6.94,3.63,13.54-3.34,13.54-9.37V617.43C1954.28,611.51,1952.34,605.48,1945.1,601.42Z" style="fill:#fff"/><path d="M1682.7,574.76V487.61c0-36.93,2.62-70.84-24.59-96.27-21.46-20.59-57-27.85-84.25-27.85-53.23,0-112.64,19.87-125.1,85.65-1.32,7,3.77,10.65,8.35,11.69l54.22,5.86c5.07-.25,8.75-5.23,9.72-10.27,4.66-22.66,23.62-33.59,45-33.59,11.51,0,24.6,4.24,31.4,14.53,7.85,11.5,6.8,27.25,6.8,40.57v7.27c-32.43,3.63-74.82,6.05-105.18,19.38-35.06,15.14-59.65,46-59.65,91.43,0,58.13,36.63,87.19,83.72,87.19,39.78,0,61.51-9.37,92.23-40.66,10.16,14.7,13.49,21.84,32.06,37.29a11.6,11.6,0,0,0,13.22-1.31h0l.13.13c11.17-9.94,31.46-27.59,42.89-37.16,4.57-3.72,3.76-9.78.2-14.85C1693.59,612.47,1682.7,601,1682.7,574.76Zm-78.49-32.66h0c0,21.81.53,40-10.45,59.34-8.91,15.75-23,25.43-38.74,25.43-21.45,0-34-16.35-34-40.57,0-47.64,42.73-56.31,83.2-56.31Z" style="fill:#fff"/></g></svg>