<svg xmlns="http://www.w3.org/2000/svg" viewBox="0 0 500.17 500.17"><title>codingame_1</title><g id="Calque_2" data-name="Calque 2"><g id="Calque_1-2" data-name="Calque 1"><path d="M.09,380.95Q.09,197.52,0,14.1A14.08,14.08,0,0,1,14.09,0q236,.15,472,0a14.08,14.08,0,0,1,14.09,14.09q-.15,236,0,472a14.08,14.08,0,0,1-14.09,14.09q-189.4-.15-378.8-.09a9.5,9.5,0,0,1-9.49-9.18q-.08-2.38-.18-4.76c-1.41-32.37,5.45-62.66,24.07-89.5a214.27,214.27,0,0,1,86-72.59c16.7-7.89,34-14.33,51.2-21,16.11-6.29,32.24-12.55,47-21.79,17.27-10.81,29.25-25.47,33.77-45.68a113.2,113.2,0,0,0,2.21-31.8c-1.57-25.44-15.67-43.37-40-51-18.8-5.86-37.51-4.4-56,1.32-42.1,13-71,49.17-72.71,90.61A118.16,118.16,0,0,1,154,304.87c-15.28,23.72-36.66,40.66-61,54.22C67.44,373.35,40.11,382.85,12,390.14A9.5,9.5,0,0,1,.09,380.95Zm447-282c.15-25.55-20.89-46.64-46.7-46.82s-46.45,19.63-46.85,45.19c-.39,24.86,21,46.32,46.47,46.63C425.79,144.22,446.94,124,447.09,98.9Z" style="fill:#fff"/></g></g></svg>