<svg xmlns="http://www.w3.org/2000/svg" viewBox="0 0 2496.88 2094.83"><title>docker</title><g id="Calque_2" data-name="Calque 2"><g id="Calque_1-2" data-name="Calque 1"><path d="M377.12,1699.06V1539.28c0-21,13.13-37.86,34.86-37.86h6c21.73,0,34.79,16.88,34.79,37.86v336.4c0,82-40.53,147.3-111.15,188.89a208.73,208.73,0,0,1-106.88,29.15h-15c-82.05,0-147.24-40.56-188.89-111.13a208.14,208.14,0,0,1-29.14-106.9v-15c0-82.06,40.55-147.29,111.11-189a208,208,0,0,1,106.91-29.15h15c55.53,0,102.64,21.52,142.36,56.48ZM77.38,1868.16c0,59.26,28.72,103.81,80.64,132.23A140,140,0,0,0,225.77,2018c58.16,0,101.31-27.44,131.06-76.73,13.84-22.93,20.28-48,20.28-74.69,0-51.37-24.32-91.46-65.71-121.23a141.21,141.21,0,0,0-84.16-27.1c-63.4,0-109,32-136.41,88.93-9.24,19.24-13.46,39.66-13.46,60.94Zm637.93-225.59H725.8c87.68,0,154.36,42.53,196.61,119.06,16.89,30.62,25.94,64,25.94,99v15c0,82-40.45,147.39-111.18,188.9a209.23,209.23,0,0,1-106.87,29.14h-15c-82.05,0-147.26-40.56-188.89-111.13a208.16,208.16,0,0,1-29.17-106.9v-15c0-82.07,40.71-147.09,111.1-188.94a207.05,207.05,0,0,1,107-29.17ZM572.93,1868.16c0,57.52,28.22,99.83,76.81,129.59,22.81,14,47.94,20.29,74.59,20.29,56.84,0,98.85-28.82,128.09-76.79,13.95-22.87,20.25-48,20.25-74.63,0-53.49-25.76-94.35-69.8-124a140.73,140.73,0,0,0-80.06-24.38c-63.4,0-109,32-136.4,88.93-9.26,19.24-13.48,39.66-13.48,60.94Zm690-143.82c-11.43-5.35-32.81-7.13-45.16-7.6-63.22-2.38-109,33.22-135.8,89a138.37,138.37,0,0,0-13.5,60.89c0,64.81,34,110.2,91.88,137.86,21.13,10.1,48.42,12,71.51,12,20.31,0,49-12.44,67.05-21l3.13-1.48h14l1.54.31c17.21,3.58,30.2,14.49,30.2,33v7.49c0,46.07-84.2,56.62-116.33,58.87-113.38,7.84-198.17-54.42-230.5-162.57a196,196,0,0,1-8.14-57v-15c0-82.06,40.72-147.06,111.1-188.87a207.13,207.13,0,0,1,106.93-29.2h15a192.68,192.68,0,0,1,110.78,34.2l2.73,1.89,1.73,2.85c3.59,6,6.69,12.85,6.69,19.94v7.49c0,19.32-14.45,29.71-31.89,33.07l-1.45.25H1310c-11.29,0-37-11.69-47-16.44Zm245.45,51.24c29.39-29.43,58.89-58.81,88.72-87.75,8.31-8.08,39.79-42.26,52.18-42.26h13.55l1.54.32c17.27,3.58,30.2,14.51,30.2,33.07v7.48c0,12.66-14.82,27.36-23,36-17.38,18.43-35.68,36.25-53.48,54.3l-91.43,92.81q59,59.18,117.73,118.69,16.24,16.46,32.24,33.16c3.76,4,9.31,8.88,12.46,14.36a31,31,0,0,1,5.47,17.11v7.81l-.44,1.81c-4.25,17.27-15.21,31.19-34.34,31.19h-6c-12.52,0-26.66-14.16-35.23-22.26-17.68-16.66-34.74-34.18-52.06-51.2l-58.1-57v91.15c0,21-13.14,37.87-34.85,37.87h-6c-21.74,0-34.86-16.87-34.86-37.87V1540.74c0-21,13.13-37.79,34.86-37.79h6c21.71,0,34.85,16.8,34.85,37.79v234.84Zm943.13-130H2459c22.7,0,37.84,15.29,37.84,37.86,0,31.33-30,39.35-55.86,39.35-34,0-66.44,20.58-89.86,43.65-29.21,28.8-42,65.68-42,106.23v183.19c0,21-13.12,37.85-34.86,37.85h-6c-21.75,0-34.85-16.85-34.85-37.85V1862.15c0-74.38,36.21-135.11,96.58-177.7,36-25.44,77.33-38.87,121.46-38.87Zm-537.83,363c27.54,9.62,58.94,8.24,87.19,3.32,14.45-6.14,51.41-22.27,65-19.9l2.12.36,2,1c8.3,4,16.22,9.72,20.46,18.16,9.9,19.79,5.15,39.7-14.31,50.94l-6.47,3.74c-71.78,41.43-148.12,35.68-219.68-3-34.21-18.5-60.38-45.95-79.69-79.41l-4.51-7.82c-46.08-79.8-39.86-163.75,12.11-239.64,17.94-26.23,41.39-46.49,68.8-62.34l10.37-6c67.6-39,140-36.35,209.47-2.1,37.33,18.42,67.58,45.87,88.42,82l3.75,6.5c15.14,26.23-4.47,49.08-24.72,64.71-23.5,18.13-47.22,39.94-69.74,59.38q-75.32,65-150.53,130.18Zm-65-45.64q84.23-72.22,168.33-144.69c19.14-16.5,40.13-33.63,59.11-51-15.23-19.2-40.68-33-62.3-41.29-43.65-16.63-86.69-11-126.72,12.06-52.39,30.25-74.71,78.43-72.75,138.38.78,23.61,7.13,46.37,19.66,66.46A175,175,0,0,0,1848.69,1963ZM1440.31,446.6h223.3V674.87h112.9c52.15,0,105.77-9.29,155.15-26,24.27-8.23,51.49-19.68,75.43-34.08-31.52-41.15-47.62-93.12-52.34-144.34-6.45-69.68,7.62-160.36,54.77-214.89L2033,228.4l28,22.49c70.42,56.57,129.65,135.63,140.09,225.76,84.79-24.94,184.36-19,259.09,24.09l30.66,17.7-16.13,31.5C2411.46,673.3,2279.3,711.52,2150.1,704.76c-193.33,481.53-614.24,709.5-1124.58,709.5-263.67,0-505.57-98.56-643.32-332.49l-2.26-3.81-20.07-40.84c-46.56-103-62-215.77-51.54-328.49l3.15-33.76h191V446.6H725.73V223.3h446.61V0h268V446.6" style="fill:#fff"/><path d="M2163.77,531.05c15-116.37-72.11-207.76-126.11-251.16-62.24,72-71.9,260.53,25.73,339.92-54.49,48.4-169.31,92.27-286.87,92.27H345.41C334,834.8,355.53,947.82,404.74,1044.55L421,1074.34A552.12,552.12,0,0,0,454.76,1125q88.26,5.67,162.71,4h0c97.53-2.15,177.11-13.67,237.42-34.57a17.2,17.2,0,0,1,11.26,32.48c-8,2.79-16.39,5.39-25,7.86h0c-47.49,13.56-98.42,22.69-164.12,26.74,3.91.07-4.06.59-4.08.59-2.24.15-5,.47-7.29.59-25.86,1.46-53.77,1.76-82.3,1.76-31.21,0-61.94-.59-96.31-2.34l-.88.59c119.24,134,305.68,214.4,539.39,214.4,494.61,0,914.14-219.26,1099.92-711.49,131.8,13.53,258.47-20.09,316.08-132.57-91.78-53-209.8-36.07-277.76-1.91" style="fill:#22a0c8"/><path d="M2163.77,531.05c15-116.37-72.11-207.76-126.11-251.16-62.24,72-71.9,260.53,25.73,339.92-54.49,48.4-169.31,92.27-286.87,92.27H430.16c-5.84,187.95,63.91,330.62,187.3,416.87h0c97.53-2.15,177.11-13.67,237.42-34.57a17.2,17.2,0,0,1,11.26,32.48c-8,2.79-16.39,5.39-25,7.86h0c-47.49,13.56-102.79,23.86-168.5,27.91,0,0-1.59-1.51-1.61-1.51,168.33,86.35,412.4,86,692.24-21.46C1677,1019.11,1969,789.46,2172.72,526.8q-4.6,2.08-9,4.26" style="fill:#37b1d9"/><path d="M348.1,861.19c8.89,65.74,28.13,127.29,56.64,183.36L421,1074.34A551.1,551.1,0,0,0,454.76,1125q88.27,5.67,162.73,4c97.53-2.15,177.11-13.67,237.42-34.57a17.2,17.2,0,0,1,11.26,32.48c-8,2.79-16.39,5.39-25,7.86h0c-47.49,13.56-102.5,23.27-168.2,27.33-2.26.14-6.19.17-8.47.29-25.84,1.45-53.47,2.33-82,2.33-31.2,0-63.12-.6-97.46-2.34,119.24,134,306.84,214.7,540.55,214.7,423.44,0,791.84-160.72,1005.65-515.84H348.1" style="fill:#1b81a5"/><path d="M443,861.19c25.31,115.43,86.14,206,174.45,267.75,97.53-2.15,177.11-13.67,237.42-34.57a17.2,17.2,0,0,1,11.26,32.48c-8,2.79-16.39,5.39-25,7.86h0c-47.49,13.56-103.66,23.27-169.38,27.33,168.32,86.33,411.69,85.09,691.5-22.39,169.28-65,332.2-161.86,478.36-278.47H443" style="fill:#1d91b4"/><path d="M539.65,483.82H733.18V677.35H539.65ZM555.77,500H571V661.23H555.77Zm28.71,0h15.89V661.23H584.49V500Zm29.32,0h15.89V661.23H613.8Zm29.34,0H659V661.23H643.13Zm29.33,0h15.88V661.23H672.46V500Zm29.32,0h15.28V661.23H701.78Zm61.17-239.43H956.49V454H762.94V260.52Zm16.13,16.13h15.26V437.92H779.08Zm28.71,0h15.88V437.92H807.8V276.65Zm29.32,0H853V437.92H837.11Zm29.33,0h15.88V437.92H866.44Zm29.33,0h15.89V437.92H895.76Zm29.32,0h15.29V437.92H925.08Z" style="fill:#23a3c2"/><path d="M762.95,483.82H956.49V677.35H762.94V483.82ZM779.08,500h15.26V661.23H779.08Zm28.71,0h15.88V661.23H807.8V500Zm29.32,0H853V661.23H837.11Zm29.33,0h15.88V661.23H866.44Zm29.33,0h15.89V661.23H895.76Zm29.32,0h15.29V661.23H925.08Z" style="fill:#34bbde"/><path d="M986.26,483.82h193.54V677.35H986.26ZM1002.38,500h15.26V661.23h-15.26Zm28.71,0H1047V661.23h-15.88Zm29.33,0h15.88V661.23h-15.88Zm29.33,0h15.88V661.23h-15.88Zm29.32,0H1135V661.23h-15.9Zm29.33,0h15.27V661.23h-15.27Z" style="fill:#23a3c2"/><path d="M986.26,260.52h193.54V454H986.26Zm16.12,16.13h15.26V437.92h-15.26Zm28.71,0H1047V437.92h-15.88Zm29.33,0h15.88V437.92h-15.88Zm29.33,0h15.88V437.92h-15.88Zm29.32,0H1135V437.92h-15.9Zm29.33,0h15.27V437.92h-15.27Zm61.17,207.17H1403.1V677.35H1209.56ZM1225.69,500H1241V661.23h-15.26Zm28.71,0h15.88V661.23H1254.4Zm29.32,0h15.88V661.23h-15.88Zm29.33,0h15.89V661.23H1313Zm29.33,0h15.89V661.23h-15.89Zm29.33,0H1387V661.23H1371.7Z" style="fill:#34bbde"/><path d="M1209.56,260.52H1403.1V454H1209.56Zm16.13,16.13H1241V437.92h-15.26Zm28.71,0h15.88V437.92H1254.4Zm29.32,0h15.88V437.92h-15.88Zm29.33,0h15.89V437.92H1313Zm29.33,0h15.89V437.92h-15.89Zm29.33,0H1387V437.92H1371.7Z" style="fill:#23a3c2"/><path d="M1209.56,37.21H1403.1V230.76H1209.56Zm16.13,16.12H1241V214.62h-15.26V53.32Zm28.71,0h15.88V214.62H1254.4V53.32Zm29.32,0h15.88V214.62h-15.88V53.32Zm29.33,0h15.89V214.62H1313V53.32Zm29.33,0h15.89V214.62h-15.89V53.32Zm29.33,0H1387V214.62H1371.7V53.32Z" style="fill:#34bbde"/><path d="M1432.86,483.82H1626.4V677.35H1432.86ZM1449,500h15.28V661.23H1449V500Zm28.71,0h15.89V661.23H1477.7V500Zm29.34,0h15.89V661.23H1507Zm29.32,0h15.89V661.23h-15.89Zm29.34,0h15.88V661.23h-15.88Zm29.32,0h15.27V661.23H1595Z" style="fill:#23a3c2"/><path d="M944.38,991.13a53.4,53.4,0,1,1,1.42,106.79h-1.44a53.4,53.4,0,0,1,0-106.79" style="fill:#d3ecec"/><path d="M944.38,1006.28a38.09,38.09,0,0,1,13.84,2.59,15.6,15.6,0,1,0,21.48,21,38.23,38.23,0,1,1-35.32-23.57M0,880.49H2483.66c-54.07-13.71-171.09-32.25-151.8-103.12-98.34,113.79-335.48,79.83-395.33,23.73-66.64,96.66-454.63,59.91-481.69-15.39-83.55,98.06-342.45,98.06-426,0-27.08,75.3-415.06,112.05-481.71,15.38-59.84,56.11-297,90.07-395.31-23.71C171.11,848.24,54.09,866.78,0,880.5" style="fill:#364548"/><path d="M1086.3,1375.88c-132.23-62.74-204.79-148-245.18-241.15-49.12,14-108.15,23-176.76,26.83q-38.76,2.17-81.54,2.19-49.34,0-103.94-2.9C600.15,1282,749.32,1375.33,1025.53,1377q30.59,0,60.77-1.15" style="fill:#bdd9d7"/><path d="M890.23,1220.64c-18.29-24.83-36-56-49.08-85.94-49.12,14-108.17,23-176.79,26.86,47.13,25.58,114.52,49.28,225.88,59.08" style="fill:#d3ecec"/></g></g></svg>