<svg xmlns="http://www.w3.org/2000/svg" viewBox="0 0 85.14 57.05"><title>flag-en</title><g id="Calque_2" data-name="Calque 2"><g id="ƒŒƒCƒ__2" data-name="ƒŒƒCƒ„[_2"><rect x="0.05" y="0.05" width="85.04" height="56.95" style="fill:#31287c"/><polygon points="0.05 0.05 10.71 0.05 33.02 14.99 33.02 0.05 52.14 0.05 52.14 14.99 74.44 0.05 85.09 0.05 85.09 0.05 85.09 7.18 67.5 18.97 85.09 18.97 85.09 38.09 67.5 38.09 85.09 49.87 85.09 57 74.44 57 52.14 42.06 52.14 57 33.02 57 33.02 42.06 10.7 57 0.05 57 0.05 49.87 17.64 38.09 0.05 38.09 0.05 18.97 17.65 18.97 0.05 7.18 0.05 0.05" style="fill:#fff"/><polygon points="33.02 39.45 33.02 38.09 28.3 38.09 0.05 57 6.81 57 33.02 39.45" style="fill:#e30613"/><polygon points="52.14 17.6 52.14 18.97 56.85 18.97 85.09 0.05 78.33 0.05 52.14 17.6" style="fill:#e30613"/><polygon points="0.05 4.57 21.54 18.97 28.3 18.97 0.05 0.05 0.05 0.05 0.05 4.57" style="fill:#e30613"/><polygon points="56.85 38.09 85.09 57 85.09 52.48 63.6 38.09 56.85 38.09" style="fill:#e30613"/><polygon points="48.31 22.79 48.31 0.05 36.84 0.05 36.84 22.79 0.05 22.79 0.05 34.26 36.84 34.26 36.84 57 48.31 57 48.31 34.26 85.09 34.26 85.09 22.79 48.31 22.79" style="fill:#e30613"/><rect x="0.05" y="0.05" width="85.04" height="56.95" style="fill:none;stroke:#1d1d1b;stroke-width:0.1px"/></g></g></svg>