<svg xmlns="http://www.w3.org/2000/svg" viewBox="0 0 37.81 30.25"><title>github</title><path d="M14.66 20.85c0 1.65-.86 4.34-2.89 4.34s-2.89-2.69-2.89-4.34.86-4.34 2.89-4.34 2.89 2.69 2.89 4.34zm23.15-4a17.07 17.07 0 0 1-1.38 7.48c-3 6-11.19 5.89-17.07 5.89s-14.67.21-17.77-5.89A16.86 16.86 0 0 1 0 16.87a13.55 13.55 0 0 1 3.27-8.95 12.33 12.33 0 0 1-.61-3.84A7.84 7.84 0 0 1 3.81 0a12.31 12.31 0 0 1 8.57 2.84 30.17 30.17 0 0 1 7-.79 27.17 27.17 0 0 1 6.33.72A12.17 12.17 0 0 1 34.19 0a7.77 7.77 0 0 1 1.15 4.08 12.16 12.16 0 0 1-.61 3.8 13.57 13.57 0 0 1 3.07 9zm-5.06 4c0-3.46-2.1-6.51-5.79-6.51a32.38 32.38 0 0 0-4.41.47 23.14 23.14 0 0 1-3.55.25 23.28 23.28 0 0 1-3.55-.25 31.86 31.86 0 0 0-4.45-.47c-3.69 0-5.79 3-5.79 6.51 0 6.92 6.33 8 11.85 8h3.8c5.56-.02 11.88-1.08 11.88-8zm-6.51-4.34c-2 0-2.89 2.69-2.89 4.34s.86 4.34 2.89 4.34 2.89-2.69 2.89-4.34-.86-4.34-2.89-4.34z" fill="#fff"/></svg>