<svg xmlns="http://www.w3.org/2000/svg" viewBox="0 0 2485.75 766.01"><title>jenkins</title><g id="Calque_2" data-name="Calque 2"><g id="Calque_1-2" data-name="Calque 1"><path d="M545.65,369.12c0,151.76-120.28,274.79-268.65,274.79S8.35,520.88,8.35,369.12,128.63,94.33,277,94.33s268.65,123,268.65,274.8" style="fill:#d33833"/><path d="M19.3,437.18S-.15,150.61,263.9,142.43l-18.42-30.7L102.2,159.82,61.26,206.9,25.44,275.48,5,355.3l6.14,53.22" style="fill:#ef3d3a"/><path d="M93,181.66a270.93,270.93,0,0,0,0,377c47.16,48.22,112.15,78,184,78s136.85-29.76,184-78a270.93,270.93,0,0,0,0-377c-47.16-48.21-112.15-78-184-78s-136.84,29.76-184,78ZM81.07,570.28a287.59,287.59,0,0,1,0-400.27C131.14,118.76,200.47,87,277,87s145.86,31.75,195.93,83a287.58,287.58,0,0,1,0,400.27c-50.07,51.24-119.41,83-195.93,83s-145.85-31.76-195.93-83" style="fill:#231f20"/><path d="M390.09,370.64l-40.94,6.14-55.27,6.14-35.82,1-34.8-1-26.61-8.19-23.54-25.58L154.7,297,150.6,285.7,126,277.51,111.71,254,101.48,220.2l11.26-29.68,26.61-9.21,21.49,10.24,10.23,22.51,12.28-2,4.09-5.11-4.09-23.54-1-29.68,6.14-40.94-.24-23.38,18.66-29.83L239.64,36,297,11.42l63.46,9.21,55.27,39.91,25.58,40.94,16.38,29.68,4.09,73.69L449.45,268.3l-22.51,56.29-21.49,29.68" style="fill:#f0d6b7"/><path d="M355.29,547.7l-146.35,6.14V578.4l12.28,86-6.14,7.16-102.35-34.8-7.16-12.28L95.33,508.81,71.8,439.21l-5.12-16.37,81.88-56.29,25.58-10.24,22.52,27.63,19.45,17.4,22.51,7.16,10.24,3.07,12.28,53.22,9.21,11.26,23.54-8.19L277.51,499.6l89,42-11.26,6.14" style="fill:#335061"/><path d="M112.73,190.52l26.61-9.21,21.49,10.24,10.23,22.51,12.28-2,3.07-12.28-6.14-23.54,6.14-56.29L181.3,89.2,199.72,67.7,239.64,36,228.38,20.63,172.09,48.26,148.55,66.68,135.25,95.34,114.78,123l-6.14,32.75,4.09,34.8" style="fill:#6d6b6d"/><path d="M154.69,94.31S170,56.45,231.45,38s3.07-13.31,3.07-13.31L168,50.31,142.41,75.89,131.15,96.36l23.54-2m-30.7,89s-21.49-71.64,60.38-81.88L181.3,89.2,125,102.5l-16.37,53.22,4.09,34.8L124,183.35" style="fill:#dcd9d8"/><path d="M156.74,278.53l13.4-13s6,.7,7.07,7.86,4.09,71.64,48.1,106.44c4,3.18-32.75-5.12-32.75-5.12l-32.75-51.17m185.25-64.48s2.39-31,10.74-28.64,8.35,10.74,8.35,10.74-20.29,13.12-19.1,17.9M430,145.49s-16.87,3.56-18.42,18.42S430,167,433.07,166M306.16,146.51s-22.51,3.07-22.51,17.4,25.58,13.31,32.75,7.16M167,213s-38.89-23.54-43-1-13.31,38.89,6.14,62.43l-13.31-4.1-12.28-31.73-4.09-30.7L124,183.35l26.61,2,15.35,12.28L167,213m18.42-64.47S202.79,58.49,290.81,41.1c72.47-14.32,110.53,3.07,124.86,19.44,0,0-64.48-76.76-125.88-53.22S183.35,73.84,184.37,101.48c1.74,47.06,1,47.08,1,47.08M422.84,70.77s-29.68-1-30.7,25.59a20.32,20.32,0,0,0,2,8.18S417.72,77.94,432,92.27" style="fill:#f7e4cd"/><path d="M292.87,107.32s-5.11-40.85-39.93-17.1c-22.52,15.35-20.47,36.84-16.38,40.94s3,12.34,6.1,6.68,2.09-24.08,13.35-29.2,29.71-10.83,36.86-1.32" style="fill:#f7e4cd"/><path d="M196.65,383.95l-96.2,43s39.91,158.64,19.44,207.76l-14.32-5.11-1-60.38L77.93,454.57,66.68,422.84,167,355.29l29.68,28.65m9.89,87.74,13.65,16.65v61.41H203.82s-2-43-2-48.1,2-23.54,2-23.54M206.89,559l-46.05,2,13.3,9.21,32.75,5.12" style="fill:#49728b"/><path d="M364.5,548.72l37.87-1,9.21,94.16L372.69,647l-8.19-98.25" style="fill:#335061"/><path d="M374.73,548.72,432,545.65s23.54-59.36,23.54-62.43,20.47-86,20.47-86L430,349.15,420.79,341l-24.56,24.56v95.18l-21.49,88" style="fill:#335061"/><path d="M400.32,541.56l-35.82,7.16,5.12,28.66c13.3,6.14,35.82-10.24,35.82-10.24m-4.09-204.69L473,415.68l2-24.56L420.79,341l-19.45,21.49" style="fill:#49728b"/><path d="M242.41,750.35l-21.19-86-10.54-63.44-1.74-47.09,95.9-5.1H364.5l-5.42,107.47,9.21,82.9-1,15.35-77.78,6.14-47.08-10.23" style="fill:#fff"/><path d="M351.19,547.7s-5.12,106.44,10.23,182.17c0,0-30.7,19.45-75.74,24.56l86-3.07,10.24-6.14L369.62,577.38l-3.07-35.82" style="fill:#dcd9d8"/><path d="M413.32,633.68l39.91-11.26L529,618.33l11.26-34.8-20.47-60.38-23.54-3.07-32.75,10.23L432,545.65l-16.68-3.06-13,5.11" style="fill:#fff"/><path d="M412.6,613.2s26.61-12.28,30.7-11.25L432,545.65l13.31-5.11s9.21,53.22,9.21,59.36c0,0,57.31,3.07,62.43,3.07,0,0,12.28-23.54,9.21-48.1l11.26,32.75,1,18.42L522.11,630.6l-18.42,4.09-30.7-1-10.24-13.3-35.82,5.11-11.26,4.1" style="fill:#dcd9d8"/><path d="M372.38,540.55l-22.51-57.31-23.54-33.77s5.12-14.33,12.28-14.33h23.54l22.51,8.19-2,37.87-10.24,59.36" style="fill:#fff"/><path d="M376.78,521.09s-28.65-55.26-28.65-63.45c0,0,5.12-12.28,12.28-9.21s22.51,11.25,22.51,11.25V440.24l-34.8-7.17-23.54,3.07L364.5,530.3l8.19,1" style="fill:#dcd9d8"/><path d="M251.62,386l-28.35-3.08-26.61-8.19v9.21l13,14.34,40.94,18.42" style="fill:#fff"/><path d="M205.87,389.08s31.73,13.31,42,10.24l1,12.27-28.65-6.13-17.4-12.28,3.07-4.09" style="fill:#dcd9d8"/><path d="M413.21,438.62c-17.37-.51-33.05-2.57-46.79-6.45.93-5.63-.82-11.16.59-15.22,3.83-2.76,10.25-2.71,16-3.36a27.91,27.91,0,0,0-17.81-2c-.14-3.91-1.89-6.33-3-9.39,9.76-3.49,32.81-26.33,45.78-18.77,6.18,3.6,8.8,24.15,9.28,34.14.4,8.29-.75,16.66-4.13,21.05" style="fill:#d33833"/><path d="M413.21,438.62c-17.37-.51-33.05-2.57-46.79-6.45.93-5.63-.82-11.16.59-15.22,3.83-2.76,10.25-2.71,16-3.36a27.91,27.91,0,0,0-17.81-2c-.14-3.91-1.89-6.33-3-9.39,9.76-3.49,32.81-26.33,45.78-18.77,6.18,3.6,8.8,24.15,9.28,34.14.4,8.29-.75,16.66-4.13,21.05Z" style="fill:none;stroke:#d33833;stroke-width:2.5px"/><path d="M330.17,410.23c0,1.31-.1,2.64-.15,4-5.42,3.56-14.17,3.52-20.13,6.51a52.25,52.25,0,0,1,21.65,5.48l-.39,9.93c-9.94,6.8-19,16.94-30.72,23.32-5.53,3-25,10.78-30.84,9.41-3.33-.77-3.63-4.91-5-8.8-2.84-8.34-9.37-21.62-9.94-34.18-.72-15.86-2.33-42.44,14.77-39.17,13.79,2.63,29.83,9,40.51,14.82,6.53,3.56,10.3,8,20.2,8.73" style="fill:#d33833"/><path d="M330.17,410.23c0,1.31-.1,2.64-.15,4-5.42,3.56-14.17,3.52-20.13,6.51a52.25,52.25,0,0,1,21.65,5.48l-.39,9.93c-9.94,6.8-19,16.94-30.72,23.32-5.53,3-25,10.78-30.84,9.41-3.33-.77-3.63-4.91-5-8.8-2.84-8.34-9.37-21.62-9.94-34.18-.72-15.86-2.33-42.44,14.77-39.17,13.79,2.63,29.83,9,40.51,14.82,6.53,3.56,10.3,8,20.2,8.73Z" style="fill:none;stroke:#d33833;stroke-width:2.5px"/><path d="M340,429.15c-1.52-8.64-3.27-11.1-2.6-18.65,23-15.36,27.37,26.39,2.59,18.65" style="fill:#d33833"/><path d="M340,429.15c-1.52-8.64-3.27-11.1-2.6-18.65,23-15.36,27.37,26.39,2.59,18.65Z" style="fill:none;stroke:#d33833;stroke-width:2.5px"/><path d="M373.4,436.16s-7.16-10.24-2-13.31,10.24,0,13.31-5.12,0-8.18,1-14.32,6.15-7.17,11.26-8.19,19.45-3.07,21.49,2l-6.14-18.42L400,374.75l-38.89,22.52-2,11.25V431m-93.14,38.89q-1.85-24-4-47.88c-2.16-23.83,5.72-19.67,26.38-19.67,3.15,0,19.42,3.76,20.59,6.14,5.58,11.4-9.33,8.87,6.43,17.46,13.3,7.26,36.81-4.4,31.44-20.53-3-3.59-15.68-1.12-20.22-3.47l-24-12.44c-10.17-5.28-33.68-13-44.53-5.6-27.48,18.69,1.74,65.39,11.54,84.88" style="fill:#ef3d3a"/><path d="M292.87,107.32c-27.89-6.5-41.75,11.67-50.21,30.52-7.55-1.83-4.54-12.1-2.64-17.33,5-13.73,25.12-32,41.56-29.53,7.07,1.06,16.65,7.53,11.29,16.34m135.91,31.77,1.32,0c6.3,13.1,11.76,27,19.71,38.53-5.32,12.41-40.33,23.39-39.8,1.11,7.57-3.31,20.64-.68,27.35-4.9-3.88-10.65-9.48-19.72-8.59-34.78m-121.63.34c6,11,7.93,22.48,16.43,30.77,3.83,3.73,11.27,8.28,7.58,18.65-.86,2.45-7.16,7.9-10.81,9-13.29,3.92-44.26.81-33.77-15.76,11,.51,25.77,7.14,34-.84-6.31-10.09-17.55-30-13.41-41.8M423.8,250.86c-20,12.86-42.33,26.83-75.12,23.59-7-6.09-9.68-19.65-2.87-28.6,3.54,6.09,1.32,17.29,11.19,19,18.61,3.18,40.26-11.38,53.65-16.48,8.29-14-.72-19.14-8.19-28.14-15.3-18.45-35.84-41.32-35.09-68.94,6.19-4.49,6.72,6.85,7.61,8.91,8,18.7,28.1,42.63,42.79,58.63,3.6,3.94,9.54,7.72,10.2,10.33,1.9,7.58-5,16.67-4.16,21.71M160,237.33c-6.27-3.58-7.77-19.35-15.13-19.8-10.52-.64-8.6,20.45-8.56,32.79-7.24-6.57-8.52-26.82-3.2-37.22-6.07-3-8.78,3.29-12.14,5.49,4.32-31.41,45.95-14.57,39,18.74m276.57,26.61c-9.31,17.73-22.49,37.26-49.83,37.83-.56-5.73-1-14.44,0-17.89,20.9-2,33.8-12.64,49.8-19.94m-131,11.5c17.43,9.17,49.47,10.15,73.17,9.46C380,290.09,380,296.5,380,302.83c-30.46,1.52-66.48-6-74.46-27.4m-3.32,17.1c12.06,30.27,53.49,26.79,88.44,26-1.54,3.93-4.87,8.57-9,10.25-11.2,4.56-42.08,8-57.63-.25-9.86-5.24-16.19-17.08-21.59-24-2.61-3.35-15.6-11.92-.2-11.94" style="fill:#231f20"/><path d="M422.34,459.5c-14.15,24.23-27.68,49.12-44.47,70.49,7-20.69,10-55.32,11.11-81.72,14.72-6.89,27.33,1.55,33.36,11.23" style="fill:#81b0c4"/><path d="M498.47,546.6c-15.84,3.17-27,18.57-42.42,17.58,8.49-12,23.37-17,42.42-17.58m7,24.79c-12.91,1.37-28.08,3.46-41.17,2.38,6.2-9.47,30.08-6.2,41.17-2.38m4.47,21.37c-14.51.31-32.55,0-46.33-1.13,8.15-8.76,36.92-3.25,46.33,1.13" style="fill:#231f20"/><path d="M395,651.25c2.08,18.22,9.3,36.69,8.4,56.64-8,2.7-12.63,5.07-23.38,5.06-.76-17-3-42.89-2.35-59.06,5.29.35,13.08-3.78,17.33-2.64" style="fill:#dcd9d8"/><path d="M371.65,382.68c-7.29,4.76-13.49,10.7-20.49,15.77-15.52.77-24-1.07-35.38-10,.19-.71,1.33-.39,1.38-1.27,16.61,7.4,37.73-3,54.5-4.52" style="fill:#f0d6b7"/><path d="M284.45,495.9c4.56-19.77,22.45-30,38.68-40.91,16.76,21.27,27,48.63,38.18,75-26.52-8-53.62-21-76.86-34.12" style="fill:#81b0c4"/><path d="M377.71,653.89c-.68,16.17,1.59,42.1,2.35,59.06,10.75,0,15.36-2.35,23.38-5.06.91-20-6.32-38.42-8.4-56.64C390.79,650.11,383,654.24,377.71,653.89Zm-167.37-92c7.09,65.16,17.35,119.94,36.18,177.64,41.8,12.69,92.17,13.79,129.11,2.35-6.78-32.57-3.82-72.22-7.78-107-3-26.12-1.46-52.4-5.56-79.05-44.76-9.31-108-2.17-152,6Zm162.53-5.63c-.38,28,1.25,55.59,3.39,83.61,10.75-1.61,18-2.69,28-4.88-3.24-27-2.84-57.33-9.45-81.19-7.63.07-14.35-.09-22,2.46Zm54.52-4.51c-5.1-1.17-11,0-15.91,0,2.29,22.81,7.85,48,9.8,71.93,7.67.24,11.76-3.38,18.07-4.59C439.68,598.16,437.5,569.2,427.38,551.79Zm82.54,75.42c16-3.88,26-23.45,21.56-43.56-3-13.51-8.34-38.95-14.06-47.59-4.22-6.39-15.68-14.76-24.83-8.9-14.88,9.53-41.09,12.29-51.94,23.83,5.44,18.11,7.13,43,9.37,66,18.59,1.16,41.45-5.11,56.91,1.55-10.79,3.49-24.8,3.52-34.12,8.61,7.62,3.68,25.46,2.94,37.1.11ZM361.31,530c-11.23-26.4-21.42-53.76-38.18-75C306.9,465.89,289,476.13,284.45,495.9,307.69,509.05,334.79,522,361.31,530ZM389,448.28c-1.06,26.4-4.07,61-11.11,81.72,16.79-21.37,30.32-46.26,44.47-70.49-6-9.68-18.64-18.12-33.36-11.23Zm-31.37-11.15c-6.36-.69-11.76,7.31-20,3.85-1.89,2.1-3.61,4.36-5.54,6.41,18.26,22,26.56,53.23,40.67,79.1,7.57-24.85,6.7-52.06,8.36-79.18-10.4.66-16.17-9.41-23.46-10.18Zm-20.17-26.62c-.68,7.54,1.07,10,2.59,18.65,24.77,7.74,20.45-34-2.59-18.64Zm-27.48-9c-10.67-5.83-26.72-12.19-40.51-14.82C252.37,383.4,254,410,254.7,425.85c.57,12.56,7.1,25.84,9.94,34.18,1.33,3.9,1.63,8,5,8.8,5.89,1.37,25.3-6.39,30.84-9.41,11.7-6.38,20.78-16.51,30.72-23.31q.2-5,.39-9.93a52.39,52.39,0,0,0-21.65-5.47c5.95-3,14.7-3,20.13-6.51,0-1.33.11-2.65.15-4-9.9-.76-13.67-5.17-20.2-8.73ZM208,383c-8.86,9,24.85,21.26,35.59,21.92-.06-5.7,3.24-11.06,2.58-15.14C233.41,387.5,216.66,389,208,383Zm109.16,4.22c0,.88-1.19.56-1.38,1.28,11.4,8.91,19.87,10.75,35.38,10,7-5.08,13.2-11,20.49-15.77-16.77,1.5-37.89,11.92-54.5,4.51Zm100.19,30.38c-.48-10-3.1-30.55-9.28-34.14-13-7.57-36,15.28-45.78,18.77,1.06,3.06,2.81,5.48,2.95,9.39a27.88,27.88,0,0,1,17.81,2c-5.78.65-12.21.6-16,3.36-1.4,4.06.34,9.58-.59,15.22,13.74,3.88,29.43,5.94,46.79,6.45,3.37-4.4,4.53-12.76,4.13-21.05ZM193.08,391.66c-2.78-2-21.61-26.48-24.18-25.46-34.06,13.43-65.91,36.66-94.37,58.63,27.14,58.23,38.09,129.56,40,198.31,31.08,14.54,58.39,35.5,100.57,37.69C210.24,626.3,205.78,595.49,203,563c-10.6-4.47-25.8.2-35.72-1.39-.08-11.95,15.15-5.24,16.42-13.27,1-6.08-8.38-6.54-5.34-16.11,7.76,2.82,11.83,9,20.09,11.38,7.56-16.53-.1-45.78,1-59.6.21-2.59,1.3-14.37,7.11-12.31,5.14,1.83-.29,31.32.27,44.4.51,12-1.46,23.7,3.42,31.27A1163.61,1163.61,0,0,1,336.52,537c-9.7-4.16-21.23-8.1-33.86-15.22-6.85-3.86-28.45-11.9-30.43-18.4-3.15-10.37,8.28-15.89,10.23-24.78-20.57,11.23-24.59-10.75-29.46-26.32-4.41-14.1-6.92-24.64-8-32.77-17.72-8.45-36.67-17-51.93-27.84Zm206.26-22.5c28.38-13.76,33.49,51.43,22.37,72.43,1.72,6.26,7.63,8.66,10,14.29-15.84,28.37-33.42,54.85-49.58,82.89,12-7.48,29.19-1.34,43.34-6.94,5.17-2,8.91-13.88,12.83-23.35,10.77-26.05,22.07-58.9,27.1-83.76,1.13-5.66,4.23-18,3.54-23-1.24-9-13.48-15.72-19.71-21.3-11.48-10.31-18.7-19.38-30.68-29-4.85,7.16-15.27,12-19.24,17.8ZM128.18,117.5c-13.53,14.88-10.69,42.76-9.06,62.59,24.44-15.38,56.88,1.21,56.58,27.37,11.67-.31,4.36-14.58,2.25-23.77-6.9-30,11.62-62.62.84-90.07C157.85,95.21,140.65,103.76,128.18,117.5Zm96.76-86.35c-30.61,8.68-69.85,30.92-82.42,58.42,9.74-1.42,16.5-6.33,26.11-6.94,3.64-.24,8.39,1.52,12.56.48,8.32-2.06,15.33-20.71,21.61-27.65,6.12-6.78,13.47-9.67,18.5-15.85,3.23-1.56,8-1.45,8.19-6.31-1.4-1.5-2.88-2.64-4.56-2.16Zm159.36,8.16C352.52,21.38,298.73,7.9,264.93,24.74c-27.27,13.6-64.14,36.1-76.71,64.61,11.74,27.52-3.48,52.73-4.45,80.66-.52,14.86,7,27.84,7.57,44-4,6.63-16.29,7.45-24.79,7-2.86-14.31-7.86-30.4-22.61-32-20.86-2.28-36.1,15-37.05,33-1.12,21.21,16.29,56.37,41,53.93,9.53-.94,11.88-10.5,22.26-10.4,5.63,11.23-8.69,14.76-10.16,22.8-.38,2.08,1.19,10.19,2.1,14,4.48,18.52,14.48,42.49,24.31,56.6,12.48,17.89,37,20.58,63.41,22.34,4.71-10.15,22.07-9.32,33.39-6.66-13.56-5.37-26.16-18.39-36.61-29.91-12-13.22-24.15-27.4-24.77-44.68,22.68,31.46,41.41,58.94,82.64,72.77,31.2,10.47,67.64-4.79,91.61-21.63,9.95-7,15.89-18.1,23-28.26,26.45-38.06,38.8-92.38,36.09-145-1.12-21.72-1.07-43.35-8.35-58-7.61-15.28-33.37-28.94-48.44-15.13-2.79-14.85,12.54-24,30.54-18.69C416,69.52,402.54,49.61,384.29,39.31Zm59.2,489.92c24.83-12.34,71.22-33.22,86.79,0,5.75,12.26,12.48,33,15.46,45.65,4.2,17.86-4.56,55.4-22.92,61.39-16.21,5.29-35.13,5-54.66,1a29.81,29.81,0,0,1-6.65-8.72c-13.94-.54-27,.75-38,6.48,1,10.31-5.93,12-12.47,14.09-4.85,19.22,9.7,44.33,6.22,61.86-2.48,12.49-17.85,14.42-29.14,16.75-.37,6.94.5,12.73,1.26,18.6-2.58,9.52-14.16,14.93-25.14,16.26-36.1,4.34-90.92,6.29-125.65-6.2-9.69-23.77-17.33-52.69-25.4-79.82-33.87,3.62-61.26-14.61-87.09-26.56-8.94-4.15-21.31-6.43-24.65-13.55-3.24-6.89-1.92-20.1-2.72-32.57-2-31.86-3.79-62.59-12.21-95.21-3.78-14.64-10.37-27.56-15-41.66C67.31,454,59.9,437.89,58,424.85c-2.87-19.32,15.32-20.4,27-28.77,18-12.94,32.1-20.11,51.58-31.79,5.77-3.46,23.16-12.22,25.14-16.26,3.93-8-6.75-19.27-9.61-25.55-4.52-9.91-6.88-18.34-7.52-28.12A54.24,54.24,0,0,1,108.3,271.1C95.92,253,87.34,219.38,98,193.84c.84-2,5-6,5.65-9.05,1.22-6.08-2.3-14.17-2.51-20.64-1.12-33.19,5.62-61.78,28-71.8,9.07-36.14,41.54-48.15,72.12-66.11,11.43-6.71,24-11,37.06-15.79C285-6.73,356.65-3.49,395.41,25.82c16.43,12.43,42.7,38.67,52.09,57.67,24.82,50.16,23.05,134,5.7,195-2.33,8.19-5.72,20.23-10.44,30.08-3.29,6.87-13.53,20.62-12.29,26.69,1.28,6.27,23.35,23,28.08,27.59,8.52,8.22,24.71,19.13,26,29.5,1.41,11-4.86,26.13-8,36.79-10.61,35.55-21,68.4-33,100.09" style="fill:#231f20"/><path d="M277.84,283.18c1.35-1.79,8.75-4.51,19.11.47,0,0-12.28,2-11.26,22.52l-5.12-1s-5.29-18.56-2.74-22" style="fill:#f7e4cd"/><path d="M367.57,459.18a5.63,5.63,0,1,1-5.63-5.63,5.63,5.63,0,0,1,5.63,5.63m5.63,26.1a5.63,5.63,0,1,1-5.63-5.63,5.63,5.63,0,0,1,5.63,5.63" style="fill:#1d1919"/><path d="M963.13,256.32q-8.63,1.08-14.68,2.16-6.85,1.26-13.6,3-8.86,2.38-11.33,8.42A36.18,36.18,0,0,0,921,283.75V452.7a97,97,0,0,1-9.39,42.78,93.29,93.29,0,0,1-25.8,32.62,119,119,0,0,1-37.13,19.55,142.49,142.49,0,0,1-43.82,6.59q-40.37,0-65.09-19.43t-24.72-53.32q0-20.08,11.33-33.25t31.19-13.17q18.78,0,29.9,11t11.12,27.2q0,13.82-9.6,25.58a148.67,148.67,0,0,1-21.91,21.7v2.81q1.95,4.32,8.44,7.34a31,31,0,0,0,13.2,3q26,0,40.8-18.58T844.39,459V285.92A31,31,0,0,0,842,273q-2.39-5.18-11.5-9.07a83.26,83.26,0,0,0-15.73-4.75q-9.22-1.95-15.29-2.81V239.48H963.12v16.84Zm256,237.9a131.34,131.34,0,0,1-18.24,23.21,110.76,110.76,0,0,1-24.29,18.67,133.25,133.25,0,0,1-29.25,12.41q-14.79,4.21-34,4.21-32,0-55.16-9.07t-38.32-24.39a97.61,97.61,0,0,1-22.56-36.16,133.41,133.41,0,0,1-7.45-45.22A113.5,113.5,0,0,1,1021,359.73q14.68-15.33,37-24.83t50-9.5q30.22,0,49.65,7.34T1189.8,353a73.61,73.61,0,0,1,17.92,29,109.54,109.54,0,0,1,5.61,35.08v14H1067.4q0,44.26,17.06,67.36t54.19,23.1a62.93,62.93,0,0,0,36.49-11.12,104,104,0,0,0,27.63-28.17l16.41,11.87Zm-82.47-82q0-13-1.29-26.55t-4.54-22.24q-3.67-10.15-10-15.33t-16.09-5.18q-16.62,0-26.55,16.84T1067.4,413Zm388.16,133.63H1395.11V530.06q4.1-.43,9.93-1.08a27.16,27.16,0,0,0,8.85-2.16,13.73,13.73,0,0,0,6.48-6.91q1.94-4.53,1.94-13.38v-101q0-22-8.12-33.14t-23.92-11.12a48.81,48.81,0,0,0-16.12,2.59,60.31,60.31,0,0,0-14.61,7.56,49.79,49.79,0,0,0-10.07,8.85q-3.29,3.91-6.39,8V504.15a32.31,32.31,0,0,0,2.16,12.63,15,15,0,0,0,7.12,7.66,41,41,0,0,0,8.63,3.45,67.09,67.09,0,0,0,10.15,2.16v15.76H1239.88V530.06q5.47-.44,10.9-1.19a52.62,52.62,0,0,0,9.39-2.05q6.91-2.37,9.5-7.34t2.59-13V380.87a27.71,27.71,0,0,0-3.46-13.17,30.87,30.87,0,0,0-9.06-10.58,35.79,35.79,0,0,0-9.83-4.32,69.4,69.4,0,0,0-13.06-2.37V334.68l103-5.61,3.24,3.24v31.3h.86q7.31-6.51,14.68-13a141.57,141.57,0,0,1,16-12.31q8-5.18,20.94-8.85a100.94,100.94,0,0,1,27.63-3.67q35.19,0,52.78,20t17.59,53V504.58q0,8,2.37,12.74t8.85,7.56a73.19,73.19,0,0,0,8.53,3,62.19,62.19,0,0,0,11.55,2.16v15.76Zm297.05,0H1720.15q-18.76-32.94-34.29-55.88-14.48-21.4-29.34-42.53l-12.72,10.76v47.06q0,7.77,2.26,12.74t8.74,7.34a55,55,0,0,0,9.07,3,64.74,64.74,0,0,0,10.36,1.73v15.76H1540.18V530.05q5.45-.43,10.87-1.19a59.64,59.64,0,0,0,9.56-2.05q6.95-2.37,9.46-7.34t2.5-13V265.81a39,39,0,0,0-3.13-14.79,24.07,24.07,0,0,0-9.17-11.55q-4.1-2.59-12.31-4.32a106.36,106.36,0,0,0-14.9-2.16V217.24l107.5-5.61,3.24,3.45V437.86q16-14.25,35.9-33t32-31.08q7.13-7.34,7.88-11.11a36.37,36.37,0,0,0,.76-4.64q0-3.89-6.82-6.47T1693,347V331.65h109.67v14.9q-21.56,6-32.87,11.33A195.55,195.55,0,0,0,1745.14,372q-8.78,5.79-17.13,12.22t-19,15.92q21.12,30.65,39,56.75t37.5,55.24q6.68,10.14,16.6,13.59a81.4,81.4,0,0,0,19.84,4.32v15.76Zm138.81,0H1824.28V530.06q5.61-.43,11-1.08a38.15,38.15,0,0,0,9.28-2.16q6.91-2.59,9.71-7.45t2.81-12.85V380.87a25.22,25.22,0,0,0-3.45-13.28,28.7,28.7,0,0,0-8.63-9.17q-3.89-2.59-11.77-5a76.37,76.37,0,0,0-14.36-3V334.68l105.78-5.61,3.24,3.24V503.72a24.19,24.19,0,0,0,3.24,12.85,19.62,19.62,0,0,0,9.28,7.88,71.81,71.81,0,0,0,9.5,3.45,64.92,64.92,0,0,0,10.8,2.16v15.76ZM1929.2,251.36q0,16.41-12.63,28a44.75,44.75,0,0,1-60,0q-12.63-11.55-12.63-28t12.63-28.07a44.58,44.58,0,0,1,60.12,0q12.52,11.66,12.52,28.07Zm336.35,294.46H2135.8V530.06q4.1-.43,9.93-1.08a27.21,27.21,0,0,0,8.85-2.16,13.71,13.71,0,0,0,6.47-6.91q1.94-4.53,1.94-13.38v-101q0-22-8.12-33.14T2131,361.24a48.83,48.83,0,0,0-16.13,2.59,60.31,60.31,0,0,0-14.61,7.56,49.7,49.7,0,0,0-10.06,8.85q-3.29,3.91-6.39,8V504.15a32.32,32.32,0,0,0,2.16,12.63,15,15,0,0,0,7.12,7.66,41,41,0,0,0,8.63,3.45,67.18,67.18,0,0,0,10.15,2.16v15.76H1980.57V530.06q5.47-.44,10.9-1.19a52.67,52.67,0,0,0,9.39-2.05q6.91-2.37,9.5-7.34t2.59-13V380.87a27.73,27.73,0,0,0-3.45-13.17,30.91,30.91,0,0,0-9.07-10.58,35.77,35.77,0,0,0-9.82-4.32,69.47,69.47,0,0,0-13.06-2.37V334.68l103-5.61,3.24,3.24v31.3h.86q7.31-6.51,14.68-13a141.35,141.35,0,0,1,16-12.31q8-5.18,20.94-8.85a100.94,100.94,0,0,1,27.63-3.67q35.19,0,52.78,20t17.59,53V504.58q0,8,2.37,12.74t8.85,7.56a73.3,73.3,0,0,0,8.52,3,62.23,62.23,0,0,0,11.55,2.16v15.76Zm120,7.34a138.14,138.14,0,0,1-40.91-6.15q-20-6.15-31-13.06l-6.47,14.68h-16.84l-2.81-80.53h15.76a107.05,107.05,0,0,0,10.8,21.91,121.09,121.09,0,0,0,17.27,21.91,97.81,97.81,0,0,0,23.21,16.41,60.43,60.43,0,0,0,28,6.69q19.64,0,29.25-7.66t9.61-23.64q0-8.63-4.32-14.25a36.88,36.88,0,0,0-11.87-9.71,109.93,109.93,0,0,0-18.46-7.34q-10-3-24.72-7.34a237,237,0,0,1-25.15-8.74q-10.47-4.42-21.69-13.92a63.57,63.57,0,0,1-15.54-20.29q-5.83-11.87-5.83-28.28,0-30.43,25.58-49.22t67-18.78a153.74,153.74,0,0,1,36.16,4,182.13,182.13,0,0,1,27.74,8.74l4.53-12.74h16.41l3.45,73.61h-15.11a89.3,89.3,0,0,0-25.91-38.75q-18.35-16.3-39.51-16.3-16.62,0-26.12,6.91t-9.5,19.21q0,16.41,13.9,23.75t38.9,13.82q38.58,9.93,56.47,27.09t17.89,43.71q0,35.41-27.74,54.83t-72.43,19.43Z" style="fill:#fff"/></g></g></svg>