<svg xmlns="http://www.w3.org/2000/svg" xmlns:xlink="http://www.w3.org/1999/xlink" viewBox="0 0 399.69 113.87"><defs><linearGradient id="linear-gradient" x1="-224.03" y1="-782.36" x2="-259.13" y2="-782.6" gradientTransform="matrix(-0.98, -0.32, 0.29, -0.88, 15.79, -702.1)" gradientUnits="userSpaceOnUse"><stop offset="0.23" stop-color="#999875"/><stop offset="0.56" stop-color="#9b9977"/><stop offset="0.68" stop-color="#a09f7e"/><stop offset="0.77" stop-color="#a9a889"/><stop offset="0.84" stop-color="#b7b69a"/><stop offset="0.9" stop-color="#c9c7b0"/><stop offset="0.95" stop-color="#deddcb"/><stop offset="0.99" stop-color="#f8f6eb"/><stop offset="1" stop-color="#fbf9ef"/></linearGradient><linearGradient id="linear-gradient-2" x1="-218.62" y1="-720.92" x2="-269.12" y2="-808.4" gradientTransform="matrix(-0.98, -0.32, 0.29, -0.88, 15.79, -702.1)" gradientUnits="userSpaceOnUse"><stop offset="0" stop-color="#48a547"/><stop offset="1" stop-color="#3f9143"/></linearGradient><linearGradient id="linear-gradient-3" x1="-214" y1="-783.8" x2="-249.79" y2="-759.76" gradientTransform="matrix(-0.98, -0.32, 0.29, -0.88, 15.79, -702.1)" gradientUnits="userSpaceOnUse"><stop offset="0" stop-color="#41a247"/><stop offset="0.35" stop-color="#4ba74b"/><stop offset="0.96" stop-color="#67b554"/><stop offset="1" stop-color="#69b655"/></linearGradient></defs><title>mongodb</title><g id="Calque_2" data-name="Calque 2"><g id="Layer_4" data-name="Layer 4"><path d="M27.43,111l-3-1S24.83,95,19.39,93.91c-3.58-4.15.55-177.41,13.57-.59,0,0-4.46,2.24-5.3,6S27.43,111,27.43,111Z" style="fill:url(#linear-gradient)"/><path d="M29,96.47S54.91,79.43,48.85,44C43,18.32,29.22,9.86,27.74,6.64A38.82,38.82,0,0,1,24.47.3L25.57,72S23.29,93.83,29,96.47Z" style="fill:url(#linear-gradient-2)"/><path d="M22.93,97.42S-1.34,80.86.06,51.65,18.6,8.06,21.94,5.46C24.1,3.16,24.19,2.27,24.35,0c1.51,3.25,1.26,48.55,1.42,53.84C26.4,74.45,24.63,93.53,22.93,97.42Z" style="fill:url(#linear-gradient-3)"/><path d="M299.91,43.1c1.39,0,6.67.24,9.12.24,4.58,0,7.77-.24,16.35-.24,7.2,0,13.25,1.94,17.58,5.65,5.23,4.52,8,10.82,8,18.49,0,10.9-5,17.2-10,20.75-5,3.71-11.45,5.81-20.68,5.81-4.91,0-13.33-.16-20.36-.24h-.1c-.33-.65.6-3.16,1.18-3.23a10.55,10.55,0,0,0,3.3-.65c1.48-.61,1.83-1.37,2-4,.24-5,.16-11,.16-17.76,0-4.84.08-14.29-.08-17.28-.25-2.5-1.31-3.15-3.43-3.63a45.67,45.67,0,0,0-4.58-.73C298.24,45.76,299.5,43.58,299.91,43.1ZM316.23,88c1.72,1.37,5.15,1.94,8.18,1.94a15.94,15.94,0,0,0,11.53-4.12c3.84-3.47,6.46-8.8,6.46-17.28,0-8.15-3.11-14.78-9.48-18.65-3.6-2.26-8.26-3.15-13.57-3.15a11.28,11.28,0,0,0-4,.48,2.12,2.12,0,0,0-.74,1.13c-.16,1.45-.16,12.51-.16,19.05,0,6.7,0,16.07.16,17.2A5,5,0,0,0,316.23,88Z" style="fill:#c0bfbf"/><path d="M357.86,43.1c.74,0,2.91.24,8.47.24,5.23,0,9.48-.16,14.55-.16,6.29,0,15,2.26,15,11.63,0,4.6-3.27,8.32-7.52,10.09-.25.08-.25.24,0,.32,6,1.53,11.36,5.25,11.36,12.35,0,6.94-4.33,11.3-10.63,14-3.84,1.69-8.58,2.26-13.41,2.26-3.68,0-13.54-.4-19-.32-.57-.24.52-2.83,1-3.23a15.35,15.35,0,0,0,3.71-.58c2-.48,2.19-1.12,2.44-4,.16-2.5.16-11.46.16-17.84,0-8.72.08-14.61,0-17.52-.08-2.26-.9-3-2.45-3.39-1.23-.24-3.27-.48-4.9-.73C356.19,45.84,357.45,43.42,357.86,43.1Zm33.32,36.25c0-7.1-5.23-11.14-14.8-11.14a37,37,0,0,0-4.17.08c-.25.08-.49.24-.49.4,0,5.09-.08,13.24.16,16.47.16,1.37,1.15,3.31,2.37,3.88,1.31.73,4.25.89,6.29.89C386.2,89.93,391.18,86.78,391.18,79.35Zm-18.56-32.3c-.33.08-.74.89-.74,1.29-.08,2.91-.16,10.5-.16,15.74a.52.52,0,0,0,.41.4c1.06.08,3.68.16,5.89.16,3.11,0,4.91-.4,5.89-.89,2.62-1.29,3.84-4.12,3.84-7.19,0-7-4.9-9.69-12.18-9.69A21.78,21.78,0,0,0,372.62,47.05Z" style="fill:#c0bfbf"/><path d="M65.38,93.77a3.5,3.5,0,0,1-.25-1.63A2.07,2.07,0,0,1,65.38,91a27.06,27.06,0,0,0,3.14-.64c1.45-.36,2-1.14,2.08-3,.24-4.35.25-12.52.16-18.26V69A2.28,2.28,0,0,0,70,66.94,16.38,16.38,0,0,0,65.67,65c-.68-.2-1.06-.56-1-1S65.07,63.13,66,63a51.78,51.78,0,0,0,11-2.85,1.6,1.6,0,0,1,.33,1.16c0,.25,0,.52-.06.8-.07.81-.15,1.73-.15,2.65a.6.6,0,0,0,.6.53.59.59,0,0,0,.42-.18c4.64-3.63,8.79-4.93,10.93-4.93,3.51,0,6.25,1.68,8.36,5.12a.57.57,0,0,0,.48.28.54.54,0,0,0,.44-.24c4.27-3.23,8.5-5.16,11.33-5.16,6.69,0,10.69,5,10.69,13.38,0,2.41,0,5.46,0,8.31,0,2.5,0,4.84,0,6.46a2.21,2.21,0,0,0,1.32,1.7,17.11,17.11,0,0,0,4.18,1h.07a6.18,6.18,0,0,1-.42,2.73c-.44,0-1.06,0-1.82-.07-1.39-.07-3.29-.17-5.51-.17-4.45,0-6.77.09-9,.23a6.71,6.71,0,0,1,0-2.72,24,24,0,0,0,2.71-.64c1.42-.47,1.82-1.11,1.91-3,0-1.34.29-13.09-.17-15.88a7.11,7.11,0,0,0-7.37-6.28,13,13,0,0,0-7.36,2.8,1.09,1.09,0,0,0-.27.69v.05a30,30,0,0,1,.32,5.92c0,1.51,0,3.12,0,4.72,0,3.24,0,6.3,0,8.61a2.17,2.17,0,0,0,1.72,2.26l1.08.25c.64.15,1.31.31,2.29.47a4.36,4.36,0,0,1,0,2,1.58,1.58,0,0,1-.28.69c-2.47-.08-5-.16-8.67-.16-1.11,0-2.92,0-4.52.09-1.3,0-2.52.07-3.22.07A3.19,3.19,0,0,1,87,92.36,2.46,2.46,0,0,1,87.21,91l1-.18c.86-.15,1.6-.28,2.31-.46,1.21-.37,1.67-1,1.76-2.58.24-3.59.42-13.94-.09-16.54-.87-4.16-3.24-6.27-7-6.27a13.25,13.25,0,0,0-7.35,2.8,2.23,2.23,0,0,0-.68,1.66c0,1.23,0,2.7,0,4.27,0,5.2,0,11.67.09,14.47a2.29,2.29,0,0,0,2,2.26c.35.1,1,.2,1.68.32l1.32.23A5.78,5.78,0,0,1,82,93.77c-.71,0-1.58,0-2.59-.09-1.53-.07-3.44-.15-5.61-.15-2.56,0-4.33.09-5.76.15-1,0-1.79.09-2.62.09Z" style="fill:#fff"/><path d="M147.8,94.49c-12.28,0-16.66-9-16.66-17.42A15.56,15.56,0,0,1,138.3,63.4a21.83,21.83,0,0,1,11.05-3.27c9.37,0,15.92,6.73,15.92,16.37,0,6.55-2.62,11.73-7.57,15a21.38,21.38,0,0,1-9.91,3Zm-1.31-30.92a7,7,0,0,0-3.91,1.1c-2.84,1.72-4.28,5.17-4.28,10.23C138.29,84.37,143,91,149.84,91a7.27,7.27,0,0,0,5-1.76c2.09-1.7,3.2-5.18,3.2-10,0-9.33-4.64-15.6-11.55-15.6Z" style="fill:#fff"/><path d="M275,94.49c-12.28,0-16.66-9-16.66-17.42a15.56,15.56,0,0,1,7.16-13.67,21.82,21.82,0,0,1,11.05-3.27c9.37,0,15.92,6.73,15.92,16.37,0,6.56-2.62,11.73-7.57,15a21.36,21.36,0,0,1-9.91,3Zm-1.31-30.92a7,7,0,0,0-3.91,1.1c-2.84,1.72-4.28,5.17-4.28,10.23C265.49,84.37,270.24,91,277,91a7.27,7.27,0,0,0,5-1.76c2.09-1.7,3.2-5.18,3.2-10,0-9.33-4.64-15.6-11.55-15.6Z" style="fill:#fff"/><path d="M232.58,113.87c-4.41,0-7.59-.93-10.3-3a9.64,9.64,0,0,1-3.82-7.14,5.58,5.58,0,0,1,1.45-3.63,38.28,38.28,0,0,1,6.66-5.33.34.34,0,0,0,.21-.32.34.34,0,0,0-.26-.34c-3.39-1.3-4.41-3.42-4.72-4.58,0,0,0-.11,0-.18a1.06,1.06,0,0,1,.42-1.32c.47-.34,1.24-.79,2-1.27a26.93,26.93,0,0,0,3.29-2.14.53.53,0,0,0-.14-.84c-5-1.68-7.54-5.4-7.54-11.07a11,11,0,0,1,4.63-9.07,21.15,21.15,0,0,1,10.36-3.51H235a21.31,21.31,0,0,1,7.91,1.76,12.62,12.62,0,0,0,4.67.74,6.34,6.34,0,0,0,5.06-1.9,4.35,4.35,0,0,1,.27,1.44A5.44,5.44,0,0,1,252,65.5a4.1,4.1,0,0,1-3.14,1.36l-.37,0a10.39,10.39,0,0,1-1.9-.32l-.32.11c-.1.15,0,.31,0,.51a1.08,1.08,0,0,1,0,.13,22.46,22.46,0,0,1,.46,3.1c0,5.94-2.35,8.53-4.88,10.45a16.69,16.69,0,0,1-8.44,3.26h0l-1,.08-1,.08h-.07c-.55.16-2,.84-2,2.11,0,1.06.65,2.37,3.76,2.6l2,.14c4.1.29,9.23.64,11.64,1.46a8,8,0,0,1,5.38,7.75c0,5.33-3.8,10.35-10.15,13.41a22.06,22.06,0,0,1-9.6,2.16Zm-.49-18.73a6.24,6.24,0,0,0-3.07.76c-3,1.92-4.39,3.84-4.39,6a6.46,6.46,0,0,0,2.55,5.2c2.1,1.78,4.94,2.65,8.67,2.65,7.34,0,10.63-3.94,10.63-7.85,0-2.72-1.37-4.54-4.18-5.57a32.81,32.81,0,0,0-10.22-1.23Zm.49-31.89c-3.79,0-6.23,3-6.23,7.61s2.1,10.11,8,10.11a5.76,5.76,0,0,0,3.78-1.46c1.38-1.26,2.28-3.88,2.28-6.63,0-6-2.94-9.63-7.85-9.63Z" style="fill:#fff"/><path d="M212.62,90.8A14.66,14.66,0,0,1,208,89.59a2.14,2.14,0,0,1-.57-1.13c-.16-2.5-.16-9.77-.16-14.53,0-3.88-.65-7.27-2.29-9.69a9.85,9.85,0,0,0-8.34-4.36c-3.19,0-7.44,2.18-11,5.17-.08.08-.62.59-.61-.2s.14-2.41.21-3.43a1.76,1.76,0,0,0-.54-1.5,49.93,49.93,0,0,1-11.08,2.91c-1.74.33-2.14,2-.29,2.58h0s0,0,0,0a15.63,15.63,0,0,1,4.2,1.85,2.19,2.19,0,0,1,.64,2c.08,5.41.08,13.73-.17,18.25-.08,1.78-.57,2.42-1.88,2.75l.12,0a25.52,25.52,0,0,1-3,.57,4.41,4.41,0,0,0,0,3.23c.82,0,5-.24,8.42-.24,4.74,0,7.19.24,8.42.24a4.51,4.51,0,0,0,.33-3.23,17.43,17.43,0,0,1-3.35-.48c-1.31-.32-1.64-1-1.72-2.42-.16-3.79-.16-11.87-.16-17.36a3.17,3.17,0,0,1,.9-2.66,10.77,10.77,0,0,1,6.7-2.42,7.36,7.36,0,0,1,5,1.69A6.91,6.91,0,0,1,200,71.66c.33,3.07.24,9.2.24,14.53,0,2.91-.24,3.63-1.31,4a13.2,13.2,0,0,1-3.35.65c-.49.48-.33,2.74,0,3.23,2.13,0,4.58-.24,8.18-.24,4.5,0,7.36.24,8.5.24A4.48,4.48,0,0,0,212.62,90.8Z" style="fill:#fff"/></g></g></svg>