<?xml version="1.0" standalone="no"?>
<!DOCTYPE svg PUBLIC "-//W3C//DTD SVG 20010904//EN"
 "http://www.w3.org/TR/2001/REC-SVG-20010904/DTD/svg10.dtd">
<svg version="1.0" xmlns="http://www.w3.org/2000/svg"
 width="1693.000000pt" height="1693.000000pt" viewBox="0 0 1693.000000 1693.000000"
 preserveAspectRatio="xMidYMid meet">
<metadata>
Created by potrace 1.11, written by Peter Selinger 2001-2013
</metadata>
<g transform="translate(0.000000,1693.000000) scale(0.100000,-0.100000)"
fill="#000000" stroke="none">
<path d="M9929 16926 c-2 -2 -44 -7 -94 -10 -87 -7 -104 -9 -190 -21 -179 -25
-314 -53 -425 -87 -257 -79 -453 -175 -595 -292 -27 -22 -53 -45 -57 -50 -3
-5 -46 11 -95 36 -391 202 -805 317 -1233 344 -223 15 -418 5 -663 -32 -426
-63 -885 -222 -1412 -486 -191 -96 -487 -252 -735 -386 -80 -44 -275 -160
-313 -187 -176 -125 -287 -232 -400 -388 -134 -184 -363 -582 -402 -697 -1 -3
-6 -16 -12 -30 -21 -51 -82 -227 -102 -295 -22 -76 -116 -461 -125 -510 -3
-16 -7 -39 -10 -50 -13 -55 -25 -113 -30 -140 -13 -71 -18 -93 -36 -171 -11
-45 -22 -95 -25 -111 -3 -15 -12 -53 -20 -83 -9 -30 -18 -65 -21 -77 -8 -41
-66 -198 -89 -243 -30 -58 -94 -148 -350 -487 -116 -153 -250 -334 -297 -403
-95 -139 -227 -346 -236 -370 -3 -8 -11 -22 -18 -30 -7 -8 -44 -77 -82 -153
-122 -241 -192 -443 -216 -622 -27 -205 -32 -254 -41 -445 -13 -252 -15 -392
-20 -1220 -6 -908 -10 -1151 -18 -1185 -3 -11 -12 -48 -21 -82 -29 -109 -53
-267 -62 -403 -3 -47 -7 -101 -10 -120 -5 -46 -5 -473 1 -575 13 -268 27 -394
51 -476 16 -53 176 -487 194 -524 5 -11 43 -103 84 -205 79 -197 177 -436 201
-485 7 -16 20 -46 28 -65 64 -149 204 -451 265 -570 123 -240 195 -332 316
-404 61 -37 151 -74 196 -82 14 -3 34 -7 44 -11 35 -10 180 -11 235 -2 131 25
276 120 341 225 16 27 30 31 30 10 0 -45 123 -400 191 -549 68 -151 94 -196
208 -356 74 -103 327 -434 356 -465 6 -6 28 -34 50 -61 67 -85 278 -338 310
-372 16 -18 35 -38 40 -45 15 -20 137 -160 160 -184 11 -11 38 -41 59 -65 166
-185 277 -300 526 -549 157 -157 310 -307 340 -334 30 -27 93 -83 140 -126 47
-43 146 -129 220 -190 74 -62 145 -120 156 -130 55 -46 309 -233 394 -291 225
-153 307 -201 545 -318 257 -128 492 -203 706 -227 103 -12 330 -6 449 11 159
23 164 24 275 46 137 29 345 83 435 114 41 15 82 28 90 30 8 2 42 13 75 26 33
13 65 24 70 25 10 2 240 96 280 114 369 167 716 360 1070 595 244 162 577 411
676 505 8 8 49 47 90 85 137 130 387 414 646 735 298 368 708 949 841 1190 13
25 31 52 38 61 8 8 14 18 14 21 0 3 23 45 51 94 73 127 199 380 253 509 26 61
52 122 59 137 l12 27 65 -60 c109 -101 221 -180 315 -225 109 -52 127 -56 237
-60 227 -7 399 132 722 586 283 398 382 570 483 845 31 82 102 314 118 385 0
3 5 23 10 45 12 58 12 56 23 100 6 22 13 57 16 79 4 21 8 41 10 45 2 3 7 28
10 55 4 27 9 52 10 55 2 3 6 29 10 56 6 47 9 71 21 135 2 14 7 52 10 85 4 33
10 87 15 120 5 33 12 98 15 145 4 47 8 101 10 120 24 246 23 512 -1 680 -11
78 -59 260 -89 342 l-32 87 27 33 c62 76 126 206 148 304 22 92 24 109 29 241
7 171 -20 371 -58 418 -7 10 -22 88 -55 290 -2 17 -9 56 -15 87 -5 32 -12 69
-15 83 -2 14 -6 36 -8 50 -3 14 -10 51 -15 83 -6 31 -13 71 -16 87 -2 17 -7
41 -10 55 -3 14 -8 39 -10 55 -3 17 -8 37 -10 45 -2 8 -6 31 -9 50 -16 109
-138 696 -188 900 -16 69 -32 136 -34 150 -3 14 -12 50 -20 80 -9 30 -18 63
-20 73 -2 10 -6 27 -9 37 -3 10 -7 27 -9 37 -15 73 -159 540 -185 598 -5 11
-23 61 -41 110 -100 279 -285 702 -656 1503 -13 29 -24 54 -24 57 0 2 -13 32
-29 67 -15 35 -40 95 -56 133 -15 39 -31 79 -36 90 -14 33 -51 129 -54 140 -1
6 -5 17 -8 25 -11 30 -56 176 -68 220 -13 51 -13 53 -32 140 -83 381 -246 759
-470 1095 -51 76 -171 239 -211 286 -17 20 -53 62 -81 95 -176 206 -470 492
-687 668 -88 71 -316 201 -448 256 -41 17 -84 35 -95 40 -57 27 -327 117 -405
135 -8 2 -62 15 -120 29 -58 15 -120 29 -139 32 -18 3 -43 8 -55 10 -44 9
-263 43 -306 48 -128 14 -158 17 -190 22 -39 6 -636 15 -641 10z"/>
</g>
</svg>
