<svg xmlns="http://www.w3.org/2000/svg" viewBox="0 0 41.03 33.32"><title>twitter</title><path d="M36.81 8.3v1.09c0 11.12-8.46 23.92-23.92 23.92A23.76 23.76 0 0 1 0 29.55a17.38 17.38 0 0 0 2 .1 16.84 16.84 0 0 0 10.44-3.59 8.42 8.42 0 0 1-7.86-5.83 10.6 10.6 0 0 0 1.59.13 8.89 8.89 0 0 0 2.21-.29 8.41 8.41 0 0 1-6.74-8.25v-.1a8.47 8.47 0 0 0 3.8 1.07A8.42 8.42 0 0 1 2.86 1.54a23.9 23.9 0 0 0 17.34 8.8 9.49 9.49 0 0 1-.2-1.93 8.42 8.42 0 0 1 14.54-5.75 16.55 16.55 0 0 0 5.34-2 8.39 8.39 0 0 1-3.7 4.63A16.86 16.86 0 0 0 41 4a18.08 18.08 0 0 1-4.19 4.3z" fill="#fff"/></svg>