<svg xmlns="http://www.w3.org/2000/svg" viewBox="0 0 3046.7 875.7"><title>webpack</title><g id="Calque_2" data-name="Calque 2"><g id="Calque_1-2" data-name="Calque 1"><path d="M387,0,774,218.9V656.8L387,875.7,0,656.8V218.9Z" style="fill:#fff"/><path d="M704.9,641.7,399.8,814.3V679.9L589.9,575.3l115,66.4Zm20.9-18.9V261.9L614.2,326.4v232l111.6,64.4ZM67.9,641.7,373,814.3V679.9L182.8,575.3,67.9,641.7ZM47,622.8V261.9l111.6,64.5v232ZM60.1,238.5,373,61.5V191.4L172.5,301.7l-1.6.9L60.1,238.5Zm652.6,0L399.8,61.5V191.4L600.3,301.6l1.6.9,110.8-64Z" style="fill:#8ed6fb"/><path d="M373,649.3,185.4,546.1V341.8L373,450.1Zm26.8,0L587.4,546.2V341.8L399.8,450.1ZM198.1,318.2,386.4,214.7,574.7,318.2,386.4,426.9Z" style="fill:#1c78c0"/><path d="M1164.3,576.3h82.5l84.1-280.2h-80.4l-49.8,198.8-53.1-198.8H1078l-53.6,198.8L975.1,296.1H894.7l83.6,280.2h82.5l52-179.5,51.5,179.5ZM1335.2,437c0,84.1,57.3,146.3,147.4,146.3,69.7,0,107.2-41.8,117.9-61.6l-48.8-37c-8,11.8-30,34.3-68.1,34.3-41.3,0-71.3-26.8-72.9-64.3H1608c.5-5.4.5-10.7.5-16.1,0-91.6-49.3-149.5-136.1-149.5-79.9,0-137.2,63.2-137.2,147.9Zm77.7-30.6c3.2-32.1,25.7-56.8,60.6-56.8,33.8,0,58.4,22.5,60,56.8Zm223.5,169.9h69.7V547.4c7.5,9.1,35.4,35.9,83.1,35.9,80.4,0,137.2-60.5,137.2-146.8,0-86.8-52.5-147.3-132.9-147.3-48.2,0-76.1,26.8-83.1,36.4V188.9h-73.9V576.3ZM1708.2,437c0-52.5,31.1-82.5,71.8-82.5,42.9,0,71.8,33.8,71.8,82.5,0,49.8-30,80.9-71.8,80.9C1735,517.9,1708.2,481.4,1708.2,437Zm247,239.5h73.9V547.3c7,9.1,34.8,35.9,83.1,35.9,80.4,0,132.9-60.5,132.9-147.3,0-85.7-56.8-146.8-137.2-146.8-47.7,0-75.6,26.8-83.1,36.4V296h-69.7V676.5ZM2027,435.4c0-44.5,26.8-80.9,71.8-80.9,41.8,0,71.8,31.1,71.8,80.9,0,48.8-28.9,82.5-71.8,82.5C2058.1,517.9,2027,487.9,2027,435.4Zm231.5,54.1c0,58.9,48.2,93.8,105,93.8,32.2,0,53.6-9.6,68.1-25.2l4.8,18.2h65.4V398.9c0-62.7-26.8-109.8-116.8-109.8-42.9,0-85.2,16.1-110.4,33.2l27.9,50.4c20.9-10.7,46.6-19.8,74.5-19.8,32.7,0,50.9,16.6,50.9,41.3v18.2c-10.2-7-32.2-15.5-60.6-15.5-65.4-.1-108.8,37.4-108.8,92.6Zm73.9-2.2c0-23,19.8-39.1,48.2-39.1s48.8,14.5,48.8,39.1c0,23.6-20.4,38.6-48.2,38.6S2332.4,510.4,2332.4,487.3Zm348.9,30.6c-46.6,0-79.8-33.8-79.8-81.4,0-45,29.5-82,77.2-82,31.6,0,53.1,15.5,65.4,26.8l20.9-62.2a142.59,142.59,0,0,0-88.4-30c-85.2,0-149,62.7-149,147.9s62.2,146.3,149.5,146.3c40.7,0,71.3-17.1,87.3-30l-19.8-60.5c-12.4,10.1-34.9,25.1-63.3,25.1Zm110.9,58.4h73.9V431.6l93.8,144.7h86.8L2940.6,423l98.6-127h-83.1l-90,117.9v-225h-73.9V576.3Z" style="fill:#fff"/></g></g></svg>